<svg xmlns="http://www.w3.org/2000/svg" width="95" height="98.357" viewBox="0 0 95 98.357">
  <g id="Icon_piople" data-name="Icon piople" transform="translate(1 1)">
    <path id="Path_22346" data-name="Path 22346" d="M335.608,180.809a8.858,8.858,0,0,0,8.4-8.4V153.5c0-6.938-13.708-10.5-21-10.5s-21,3.565-21,10.5v18.9a8.858,8.858,0,0,0,8.4,8.4" transform="translate(-276.505 -115.413)" fill="none" stroke="#00a79e" stroke-linejoin="round" stroke-width="2"/>
    <path id="Path_22347" data-name="Path 22347" d="M336.6,181.708c4.085,0,8.4-2.216,8.4-6.3V156.5c0-6.938-12.338-10.5-18.9-10.5-.649,0-1.357.036-2.1.105" transform="translate(-252.005 -112.059)" fill="none" stroke="#00a79e" stroke-linejoin="round" stroke-width="2"/>
    <path id="Path_22348" data-name="Path 22348" d="M316.4,151a8.053,8.053,0,0,0,8.4-8.4v-4.2a8.4,8.4,0,1,0-16.8,0v4.2A8.053,8.053,0,0,0,316.4,151Z" transform="translate(-269.902 -130)" fill="none" stroke="#00a79e" stroke-linejoin="round" stroke-width="2"/>
    <line id="Line_306" data-name="Line 306" y1="48.627" transform="translate(84.753 48.729)" fill="none" stroke="#00a79e" stroke-linejoin="round" stroke-width="2"/>
    <line id="Line_307" data-name="Line 307" y1="54.522" transform="translate(58.753 42.835)" fill="none" stroke="#00a79e" stroke-linejoin="round" stroke-width="2"/>
    <line id="Line_308" data-name="Line 308" y2="54.522" transform="translate(34.287 42.835)" fill="none" stroke="#00a79e" stroke-linejoin="round" stroke-width="2"/>
    <line id="Line_309" data-name="Line 309" y2="33.892" transform="translate(46.149 63.465)" fill="none" stroke="#00a79e" stroke-linejoin="round" stroke-width="2"/>
    <path id="Path_22349" data-name="Path 22349" d="M329.4,154a8.053,8.053,0,0,0,8.4-8.4v-4.2a8.4,8.4,0,0,0-16.8,0v4.2A8.053,8.053,0,0,0,329.4,154Z" transform="translate(-255.306 -126.699)" fill="none" stroke="#00a79e" stroke-linejoin="round" stroke-width="2"/>
    <path id="Path_22350" data-name="Path 22350" d="M298.4,181.708c-4.085,0-8.4-2.216-8.4-6.3V156.5c0-6.938,12.338-10.5,18.9-10.5.649,0,1.357.036,2.1.105" transform="translate(-290 -112.059)" fill="none" stroke="#00a79e" stroke-linejoin="round" stroke-width="2"/>
    <line id="Line_310" data-name="Line 310" y1="48.627" transform="translate(8.286 48.729)" fill="none" stroke="#00a79e" stroke-linejoin="round" stroke-width="2"/>
    <path id="Path_22351" data-name="Path 22351" d="M303.4,154a8.053,8.053,0,0,1-8.4-8.4v-4.2a8.4,8.4,0,1,1,16.8,0v4.2A8.053,8.053,0,0,1,303.4,154Z" transform="translate(-284.498 -126.699)" fill="none" stroke="#00a79e" stroke-linejoin="round" stroke-width="2"/>
  </g>
</svg>
