<svg xmlns="http://www.w3.org/2000/svg" width="159.062" height="144.175" viewBox="0 0 159.062 144.175">
  <g id="Group_5256" data-name="Group 5256" transform="translate(-3197.692 -1580.335)">
    <circle id="Ellipse_306" data-name="Ellipse 306" cx="57.763" cy="57.763" r="57.763" transform="translate(3219.498 1607.485)" fill="none" stroke="#344154" stroke-miterlimit="10" stroke-width="3" stroke-dasharray="3 6.6"/>
    <g id="Group_5251" data-name="Group 5251" transform="translate(3247.016 1582.14)">
      <circle id="Ellipse_307" data-name="Ellipse 307" cx="25.141" cy="25.141" r="25.141" transform="translate(0 11.553) rotate(-13.283)" fill="#fff" stroke="#344154" stroke-linecap="round" stroke-miterlimit="10" stroke-width="3"/>
      <g id="Group_5250" data-name="Group 5250" transform="translate(15.731 13.851)">
        <path id="Path_22460" data-name="Path 22460" d="M3266.98,1619.42v3.021a18.294,18.294,0,0,0,2.652.264v-2.973A13.987,13.987,0,0,1,3266.98,1619.42Z" transform="translate(-3255.602 -1588.048)" fill="#00a79e"/>
        <path id="Path_22461" data-name="Path 22461" d="M3266.294,1613.142a6.482,6.482,0,0,0,2.652.611v-4.889l-12.3-18.953a18.473,18.473,0,0,0-1.729,1.974l11.379,17.637Z" transform="translate(-3254.916 -1586.371)" fill="#00a79e"/>
        <path id="Path_22462" data-name="Path 22462" d="M3261.966,1595.777v-9.619a18.129,18.129,0,0,0-2.651,1.529v4Z" transform="translate(-3255.166 -1586.158)" fill="#00a79e"/>
        <path id="Path_22463" data-name="Path 22463" d="M3270.818,1613.753a6.462,6.462,0,0,0,2.651-.61v-3.621l11.38-17.637a18.372,18.372,0,0,0-1.73-1.974l-12.3,18.953Z" transform="translate(-3255.819 -1586.371)" fill="#00a79e"/>
        <path id="Path_22464" data-name="Path 22464" d="M3281.135,1591.691v-4a18.065,18.065,0,0,0-2.652-1.529v9.619Z" transform="translate(-3256.255 -1586.158)" fill="#00a79e"/>
        <path id="Path_22465" data-name="Path 22465" d="M3277.394,1605.449a20.277,20.277,0,0,1-.281,3.254,9.848,9.848,0,0,1-1.1,3.215,6.793,6.793,0,0,1-2.33,2.45c-.131.084-.283.147-.424.22l-.008.007-.027.011a7.362,7.362,0,0,1-2.956.7l-.057,0,0,0c-.176.008-.341.026-.525.026s-.348-.019-.523-.026l0,0-.057,0a7.357,7.357,0,0,1-2.955-.7c-.009,0-.018-.008-.026-.011l-.008-.007c-.141-.073-.293-.136-.425-.22a6.788,6.788,0,0,1-2.331-2.45,9.825,9.825,0,0,1-1.1-3.215,20.25,20.25,0,0,1-.281-3.254v-.67l-2.651-4.11v5.463a18,18,0,0,0,.521,4.379,10.028,10.028,0,0,0,1.748,3.7,8.771,8.771,0,0,0,3.215,2.571,12.841,12.841,0,0,0,9.762,0,8.785,8.785,0,0,0,3.215-2.571,10.065,10.065,0,0,0,1.747-3.7,17.989,17.989,0,0,0,.522-4.379v-5.463l-2.652,4.11Z" transform="translate(-3255.166 -1586.983)" fill="#00a79e"/>
        <path id="Path_22466" data-name="Path 22466" d="M3270.818,1619.732v2.973a18.281,18.281,0,0,0,2.651-.264v-3.021A13.979,13.979,0,0,1,3270.818,1619.732Z" transform="translate(-3255.819 -1588.048)" fill="#00a79e"/>
      </g>
    </g>
    <g id="Group_5252" data-name="Group 5252" transform="translate(3294.459 1662.075)">
      <circle id="Ellipse_308" data-name="Ellipse 308" cx="25.141" cy="25.141" r="25.141" transform="translate(0 11.553) rotate(-13.283)" fill="#fff" stroke="#344154" stroke-linecap="round" stroke-miterlimit="10" stroke-width="3"/>
    </g>
    <g id="Group_5255" data-name="Group 5255" transform="translate(3199.497 1662.075)">
      <circle id="Ellipse_309" data-name="Ellipse 309" cx="25.141" cy="25.141" r="25.141" transform="translate(0 11.553) rotate(-13.283)" fill="#fff" stroke="#344154" stroke-linecap="round" stroke-miterlimit="10" stroke-width="3"/>
    </g>
    <g id="Group_5257" data-name="Group 5257" transform="translate(2657.038 623.759)">
      <path id="Path_22467" data-name="Path 22467" d="M694.317,1087.248l-1.09-5.46a5.382,5.382,0,0,0-1.844-3.083,4.4,4.4,0,0,0-1.808-.949l-4.663-1.354a1.029,1.029,0,0,1-.284-.133,1.015,1.015,0,0,1-.441-.725l-.215-1.845a7.95,7.95,0,0,0,2.734-4.3c.833-.073,1.472-1,1.472-2.168a2.077,2.077,0,0,0-1.285-2.139" transform="translate(-12.763 -5.597)" fill="none" stroke="#00a79e" stroke-linecap="round" stroke-miterlimit="10" stroke-width="3"/>
      <path id="Path_22468" data-name="Path 22468" d="M660.974,1065.115a2.1,2.1,0,0,0-1.245,2.127c0,1.167.636,2.092,1.467,2.168a7.986,7.986,0,0,0,2.735,4.3l-.213,1.845a1.017,1.017,0,0,1-.441.725,1.033,1.033,0,0,1-.284.133l-4.647,1.348a4.406,4.406,0,0,0-1.822.954,5.365,5.365,0,0,0-1.845,3.083l-1.091,5.46" transform="translate(0 -5.605)" fill="none" stroke="#00a79e" stroke-linecap="round" stroke-miterlimit="10" stroke-width="3"/>
      <path id="Path_22469" data-name="Path 22469" d="M679.477,1059.5s.386-7.726-6.559-7.726-6.6,7.738-6.6,7.738" transform="translate(-5.347)" fill="none" stroke="#00a79e" stroke-linecap="round" stroke-miterlimit="10" stroke-width="3"/>
      <path id="Path_22470" data-name="Path 22470" d="M667.176,1058.416a2.483,2.483,0,0,1,1.378-1.191,3.918,3.918,0,0,1,2.907.347,12.726,12.726,0,0,0,3.939,1.469,6.755,6.755,0,0,0,3.955-.644" transform="translate(-5.708 -2.226)" fill="none" stroke="#00a79e" stroke-linecap="round" stroke-miterlimit="10" stroke-width="3"/>
      <line id="Line_376" data-name="Line 376" x2="4.293" y2="4.45" transform="translate(663.278 1070.672)" fill="none" stroke="#00a79e" stroke-linecap="round" stroke-miterlimit="10" stroke-width="3"/>
      <line id="Line_377" data-name="Line 377" x1="4.293" y2="4.45" transform="translate(667.571 1070.672)" fill="none" stroke="#00a79e" stroke-linecap="round" stroke-miterlimit="10" stroke-width="3"/>
      <line id="Line_378" data-name="Line 378" y2="2.93" transform="translate(667.571 1075.122)" fill="none" stroke="#00a79e" stroke-linecap="round" stroke-miterlimit="10" stroke-width="3"/>
    </g>
    <text id="_" data-name="€" transform="translate(3214.498 1706.708)" fill="#00a79e" font-size="41" font-family="OpenSans-Regular, Open Sans"><tspan x="0" y="0">€</tspan></text>
  </g>
</svg>
