<svg xmlns="http://www.w3.org/2000/svg" width="123.377" height="126.304" viewBox="0 0 123.377 126.304">
  <g id="Icon_3" data-name="Icon 3" transform="translate(-2485.129 -292.405)">
    <g id="Group_5125" data-name="Group 5125" transform="translate(2507.505 324.51)">
      <g id="Group_5124" data-name="Group 5124">
        <line id="Line_329" data-name="Line 329" x2="71.505" transform="translate(0 35.758)" fill="none" stroke="#00a79e" stroke-linecap="round" stroke-linejoin="round" stroke-width="3"/>
        <line id="Line_330" data-name="Line 330" y2="35.79" transform="translate(35.753 0.005)" fill="none" stroke="#00a79e" stroke-linecap="round" stroke-linejoin="round" stroke-width="3"/>
        <path id="Path_22407" data-name="Path 22407" d="M2502.355,354.982a35.758,35.758,0,1,1,71.516.054" transform="translate(-2502.355 -319.187)" fill="none" stroke="#00a79e" stroke-linecap="round" stroke-linejoin="round" stroke-width="3"/>
        <path id="Path_22408" data-name="Path 22408" d="M2540.026,319.187s-19.167,7.653-19.167,35.758" transform="translate(-2504.269 -319.187)" fill="none" stroke="#00a79e" stroke-linecap="round" stroke-linejoin="round" stroke-width="3"/>
        <path id="Path_22409" data-name="Path 22409" d="M2520.859,359.069" transform="translate(-2504.269 -323.311)" fill="none" stroke="#00a79e" stroke-linecap="round" stroke-linejoin="round" stroke-width="3"/>
        <path id="Path_22410" data-name="Path 22410" d="M2542.237,319.187s19.168,7.653,19.168,35.758" transform="translate(-2506.479 -319.187)" fill="none" stroke="#00a79e" stroke-linecap="round" stroke-linejoin="round" stroke-width="3"/>
        <path id="Path_22411" data-name="Path 22411" d="M2563.616,359.069" transform="translate(-2508.69 -323.311)" fill="none" stroke="#00a79e" stroke-linecap="round" stroke-linejoin="round" stroke-width="3"/>
        <path id="Path_22412" data-name="Path 22412" d="M2539.364,340.766c-19.745,0-24.86-10.357-24.86-10.357" transform="translate(-2503.611 -320.347)" fill="none" stroke="#00a79e" stroke-linecap="round" stroke-linejoin="round" stroke-width="3"/>
        <path id="Path_22413" data-name="Path 22413" d="M2567.1,330.409s-5.115,10.357-24.86,10.357" transform="translate(-2506.48 -320.347)" fill="none" stroke="#00a79e" stroke-linecap="round" stroke-linejoin="round" stroke-width="3"/>
        <path id="Path_22414" data-name="Path 22414" d="M2559.467,338.493" transform="translate(-2508.261 -321.183)" fill="#35b4cf" stroke="#00a79e" stroke-width="3"/>
        <line id="Line_331" data-name="Line 331" y1="35.79" transform="translate(35.763 35.758)" fill="none" stroke="#00a79e" stroke-linecap="round" stroke-linejoin="round" stroke-width="3"/>
        <path id="Path_22415" data-name="Path 22415" d="M2573.871,359.111a35.758,35.758,0,0,1-71.516,0" transform="translate(-2502.355 -323.316)" fill="none" stroke="#00a79e" stroke-linecap="round" stroke-linejoin="round" stroke-width="3"/>
        <path id="Path_22416" data-name="Path 22416" d="M2542.237,394.869s19.168-7.652,19.168-35.758" transform="translate(-2506.479 -323.316)" fill="none" stroke="#00a79e" stroke-linecap="round" stroke-linejoin="round" stroke-width="3"/>
        <path id="Path_22417" data-name="Path 22417" d="M2563.616,359.111" transform="translate(-2508.69 -323.316)" fill="none" stroke="#00a79e" stroke-linecap="round" stroke-linejoin="round" stroke-width="3"/>
        <path id="Path_22418" data-name="Path 22418" d="M2540.026,394.869s-19.167-7.652-19.167-35.758" transform="translate(-2504.269 -323.316)" fill="none" stroke="#00a79e" stroke-linecap="round" stroke-linejoin="round" stroke-width="3"/>
        <path id="Path_22419" data-name="Path 22419" d="M2520.859,359.111" transform="translate(-2504.269 -323.316)" fill="none" stroke="#00a79e" stroke-linecap="round" stroke-linejoin="round" stroke-width="3"/>
        <path id="Path_22420" data-name="Path 22420" d="M2567.1,386.576s-5.115-10.357-24.86-10.357" transform="translate(-2506.48 -325.085)" fill="none" stroke="#00a79e" stroke-linecap="round" stroke-linejoin="round" stroke-width="3"/>
        <path id="Path_22421" data-name="Path 22421" d="M2514.5,386.576s5.115-10.357,24.86-10.357" transform="translate(-2503.611 -325.085)" fill="none" stroke="#00a79e" stroke-linecap="round" stroke-linejoin="round" stroke-width="3"/>
        <path id="Path_22422" data-name="Path 22422" d="M2525.007,379.688" transform="translate(-2504.698 -325.443)" fill="#35b4cf" stroke="#00a79e" stroke-width="3"/>
      </g>
    </g>
    <g id="Group_5129" data-name="Group 5129" transform="translate(2486.631 294.201)">
      <g id="Group_5126" data-name="Group 5126">
        <path id="Path_22423" data-name="Path 22423" d="M2534.558,297.464c-3.917,8.782-13.134,9.147-23.671,15.92-8.231,5.291-14.606,13.284-18.814,22.131a57.6,57.6,0,0,0-1.375,45.7" transform="translate(-2486.631 -294.141)" fill="none" stroke="#132248" stroke-linecap="round" stroke-miterlimit="10" stroke-width="3"/>
        <path id="Path_22424" data-name="Path 22424" d="M2526.5,296.381l9.543-2.18,2.18,9.544" transform="translate(-2485.896 -294.201)" fill="none" stroke="#132248" stroke-linecap="round" stroke-miterlimit="10" stroke-width="3"/>
      </g>
      <g id="Group_5127" data-name="Group 5127" transform="translate(2.616 98.112)">
        <path id="Path_22425" data-name="Path 22425" d="M2493.115,397.4c9.564-1,14.488,6.8,25.622,12.539,8.7,4.483,18.808,6.006,28.573,5.228a57.6,57.6,0,0,0,40.266-21.659" transform="translate(-2489.127 -390.481)" fill="none" stroke="#132248" stroke-linecap="round" stroke-miterlimit="10" stroke-width="3"/>
        <path id="Path_22426" data-name="Path 22426" d="M2495.859,404.371l-6.66-7.175,7.175-6.66" transform="translate(-2489.199 -390.536)" fill="none" stroke="#132248" stroke-linecap="round" stroke-miterlimit="10" stroke-width="3"/>
      </g>
      <g id="Group_5128" data-name="Group 5128" transform="translate(64.746 10.106)">
        <path id="Path_22427" data-name="Path 22427" d="M2600.806,383.983c-5.647-7.784-1.354-15.948-1.952-28.46-.466-9.774-4.2-19.29-9.759-27.357a57.6,57.6,0,0,0-38.891-24.041" transform="translate(-2550.204 -304.124)" fill="none" stroke="#132248" stroke-linecap="round" stroke-miterlimit="10" stroke-width="3"/>
        <path id="Path_22428" data-name="Path 22428" d="M2604.679,376.869l-2.884,9.355-9.355-2.884" transform="translate(-2549.425 -302.782)" fill="none" stroke="#132248" stroke-linecap="round" stroke-miterlimit="10" stroke-width="3"/>
      </g>
    </g>
  </g>
</svg>
