<svg xmlns="http://www.w3.org/2000/svg" width="109.002" height="95.903" viewBox="0 0 109.002 95.903">
  <g id="Icon_money" data-name="Icon money" transform="translate(1 1)">
    <path id="Path_22338" data-name="Path 22338" d="M5675.814,770.61h107v-55.8h-107v55.8Z" transform="translate(-5675.814 -714.807)" fill="none" stroke="#00a79e" stroke-linecap="round" stroke-linejoin="round" stroke-width="2"/>
    <path id="Path_22339" data-name="Path 22339" d="M5701.886,754.166c7.524,0,13.619-8.13,13.619-18.159s-6.095-18.159-13.619-18.159-13.62,8.13-13.62,18.159,6.1,18.159,13.62,18.159Z" transform="translate(-5648.385 -708.107)" fill="none" stroke="#00a79e" stroke-linecap="round" stroke-linejoin="round" stroke-width="2"/>
    <path id="Path_22340" data-name="Path 22340" d="M5693.45,743.012a16.793,16.793,0,0,0-16.794-16.795" transform="translate(-5673.963 -689.668)" fill="none" stroke="#00a79e" stroke-linecap="round" stroke-linejoin="round" stroke-width="2"/>
    <path id="Path_22341" data-name="Path 22341" d="M5703.137,743.012a16.8,16.8,0,0,1,16.8-16.795" transform="translate(-5615.625 -689.668)" fill="none" stroke="#00a79e" stroke-linecap="round" stroke-linejoin="round" stroke-width="2"/>
    <path id="Path_22342" data-name="Path 22342" d="M5693.45,715.575a16.8,16.8,0,0,1-16.794,16.794" transform="translate(-5673.963 -713.115)" fill="none" stroke="#00a79e" stroke-linecap="round" stroke-linejoin="round" stroke-width="2"/>
    <path id="Path_22343" data-name="Path 22343" d="M5703.137,715.575a16.8,16.8,0,0,0,16.8,16.794" transform="translate(-5615.625 -713.115)" fill="none" stroke="#00a79e" stroke-linecap="round" stroke-linejoin="round" stroke-width="2"/>
    <path id="Path_22344" data-name="Path 22344" d="M5686.425,729.459a3.52,3.52,0,1,0-3.521-3.52,3.521,3.521,0,0,0,3.521,3.52Z" transform="translate(-5660.2 -698.038)" fill="none" stroke="#00a79e" stroke-linecap="round" stroke-linejoin="round" stroke-width="2"/>
    <path id="Path_22345" data-name="Path 22345" d="M5703.439,729.459a3.52,3.52,0,1,0-3.521-3.52,3.524,3.524,0,0,0,3.521,3.52Z" transform="translate(-5622.714 -698.038)" fill="none" stroke="#00a79e" stroke-linecap="round" stroke-linejoin="round" stroke-width="2"/>
    <line id="Line_303" data-name="Line 303" x2="106.236" transform="translate(0.383 68.801)" fill="none" stroke="#00a79e" stroke-linecap="round" stroke-linejoin="round" stroke-width="2"/>
    <line id="Line_304" data-name="Line 304" x2="106.236" transform="translate(0.383 81.352)" fill="none" stroke="#00a79e" stroke-linecap="round" stroke-linejoin="round" stroke-width="2"/>
    <line id="Line_305" data-name="Line 305" x2="106.236" transform="translate(0.383 93.903)" fill="none" stroke="#00a79e" stroke-linecap="round" stroke-linejoin="round" stroke-width="2"/>
  </g>
</svg>
