<svg xmlns="http://www.w3.org/2000/svg" width="31.875" height="42.95" viewBox="0 0 6.375 8.59">
  <metadata><?xpacket begin="﻿" id="W5M0MpCehiHzreSzNTczkc9d"?>
<x:xmpmeta xmlns:x="adobe:ns:meta/" x:xmptk="Adobe XMP Core 5.6-c138 79.159824, 2016/09/14-01:09:01        ">
   <rdf:RDF xmlns:rdf="http://www.w3.org/1999/02/22-rdf-syntax-ns#">
      <rdf:Description rdf:about=""/>
   </rdf:RDF>
</x:xmpmeta>
                                                                                                    
                                                                                                    
                                                                                                    
                                                                                                    
                                                                                                    
                                                                                                    
                                                                                                    
                                                                                                    
                                                                                                    
                                                                                                    
                                                                                                    
                                                                                                    
                                                                                                    
                                                                                                    
                                                                                                    
                                                                                                    
                                                                                                    
                                                                                                    
                                                                                                    
                                                                                                    
                           
<?xpacket end="w"?></metadata>
<defs>
    <style>
      .cls-1 {
        fill: #00a79e;
        fill-rule: evenodd;
      }
    </style>
  </defs>
  <path id="Path_12278" data-name="Path 12278" class="cls-1" d="M746.693,3148.5a3.2,3.2,0,0,0-3.193,3.19c0,1.65,2.6,4.71,2.89,5.06l0.3,0.35,0.3-.35c0.3-.35,2.89-3.41,2.89-5.06A3.194,3.194,0,0,0,746.693,3148.5Zm0,7.36c-0.87-1.07-2.394-3.15-2.394-4.17a2.4,2.4,0,0,1,4.79,0C749.089,3152.71,747.565,3154.79,746.693,3155.86Z" transform="translate(-743.5 -3148.5)"/>
  <path id="Path_12279" data-name="Path 12279" class="cls-1" d="M746.687,3150.08a1.6,1.6,0,1,0,1.6,1.6A1.6,1.6,0,0,0,746.687,3150.08Zm0,2.4a0.8,0.8,0,1,1,.8-0.8A0.8,0.8,0,0,1,746.687,3152.48Z" transform="translate(-743.5 -3148.5)"/>
</svg>
