<svg xmlns="http://www.w3.org/2000/svg" width="78.819" height="64.584" viewBox="0 0 78.819 64.584">
  <g id="Group_5240" data-name="Group 5240" transform="translate(259.54 -651.315)">
    <path id="Path_22447" data-name="Path 22447" d="M-181.721,681.981v39.776a3.76,3.76,0,0,1-3.76,3.76h-69.3a3.76,3.76,0,0,1-3.76-3.76V681.981" transform="translate(0 -10.617)" fill="none" stroke="#00a79e" stroke-miterlimit="10" stroke-width="2"/>
    <g id="Group_5236" data-name="Group 5236" transform="translate(-245.664 652.315)">
      <g id="Group_5235" data-name="Group 5235" transform="translate(0 7.037)">
        <path id="Path_22448" data-name="Path 22448" d="M-238.205,663.275a3.466,3.466,0,0,0-.282,1.363,3.56,3.56,0,0,0,3.56,3.56,3.56,3.56,0,0,0,3.56-3.56,3.466,3.466,0,0,0-.282-1.363" transform="translate(238.487 -663.275)" fill="none" stroke="#00a79e" stroke-linecap="round" stroke-miterlimit="10" stroke-width="2"/>
      </g>
      <line id="Line_333" data-name="Line 333" y1="8.338" transform="translate(3.56)" fill="none" stroke="#00a79e" stroke-linecap="round" stroke-miterlimit="10" stroke-width="2"/>
    </g>
    <g id="Group_5238" data-name="Group 5238" transform="translate(-201.716 652.315)">
      <g id="Group_5237" data-name="Group 5237" transform="translate(0 7.037)">
        <path id="Path_22449" data-name="Path 22449" d="M-163.206,663.275a3.466,3.466,0,0,1,.282,1.363,3.56,3.56,0,0,1-3.56,3.56,3.56,3.56,0,0,1-3.56-3.56,3.466,3.466,0,0,1,.282-1.363" transform="translate(170.044 -663.275)" fill="none" stroke="#00a79e" stroke-linecap="round" stroke-miterlimit="10" stroke-width="2"/>
      </g>
      <line id="Line_334" data-name="Line 334" y1="8.338" transform="translate(3.56)" fill="none" stroke="#00a79e" stroke-linecap="round" stroke-miterlimit="10" stroke-width="2"/>
    </g>
    <line id="Line_335" data-name="Line 335" x1="36.078" transform="translate(-238.17 654.626)" fill="none" stroke="#00a79e" stroke-linecap="round" stroke-miterlimit="10" stroke-width="2"/>
    <path id="Path_22450" data-name="Path 22450" d="M-246.039,655.914h-8.741a3.76,3.76,0,0,0-3.76,3.76v12.978h76.819V659.674a3.76,3.76,0,0,0-3.76-3.76h-8.741" transform="translate(0 -1.288)" fill="none" stroke="#00a79e" stroke-linecap="round" stroke-miterlimit="10" stroke-width="2"/>
    <g id="Group_5239" data-name="Group 5239" transform="translate(-251.415 676.406)">
      <line id="Line_336" data-name="Line 336" y2="3.383" transform="translate(1.634 0)" fill="none" stroke="#00a79e" stroke-linecap="round" stroke-miterlimit="10" stroke-width="2"/>
      <line id="Line_337" data-name="Line 337" y2="3.383" transform="translate(11.59 0)" fill="none" stroke="#00a79e" stroke-linecap="round" stroke-miterlimit="10" stroke-width="2"/>
      <line id="Line_338" data-name="Line 338" y2="3.383" transform="translate(21.545 0)" fill="none" stroke="#00a79e" stroke-linecap="round" stroke-miterlimit="10" stroke-width="2"/>
      <line id="Line_339" data-name="Line 339" y2="3.383" transform="translate(31.5 0)" fill="none" stroke="#00a79e" stroke-linecap="round" stroke-miterlimit="10" stroke-width="2"/>
      <line id="Line_340" data-name="Line 340" y2="3.383" transform="translate(41.456 0)" fill="none" stroke="#00a79e" stroke-linecap="round" stroke-miterlimit="10" stroke-width="2"/>
      <line id="Line_341" data-name="Line 341" y2="3.383" transform="translate(51.411 0)" fill="none" stroke="#00a79e" stroke-linecap="round" stroke-miterlimit="10" stroke-width="2"/>
      <line id="Line_342" data-name="Line 342" y2="3.383" transform="translate(61.366 0)" fill="none" stroke="#00a79e" stroke-linecap="round" stroke-miterlimit="10" stroke-width="2"/>
      <line id="Line_343" data-name="Line 343" y2="2.871" transform="translate(1.634 11.476)" fill="none" stroke="#00a79e" stroke-linecap="round" stroke-miterlimit="10" stroke-width="2"/>
      <line id="Line_344" data-name="Line 344" y2="2.871" transform="translate(11.59 11.476)" fill="none" stroke="#00a79e" stroke-linecap="round" stroke-miterlimit="10" stroke-width="2"/>
      <line id="Line_345" data-name="Line 345" y2="2.871" transform="translate(21.545 11.476)" fill="none" stroke="#00a79e" stroke-linecap="round" stroke-miterlimit="10" stroke-width="2"/>
      <line id="Line_346" data-name="Line 346" y2="2.871" transform="translate(31.5 11.476)" fill="none" stroke="#00a79e" stroke-linecap="round" stroke-miterlimit="10" stroke-width="2"/>
      <line id="Line_347" data-name="Line 347" y2="2.871" transform="translate(41.456 11.476)" fill="none" stroke="#00a79e" stroke-linecap="round" stroke-miterlimit="10" stroke-width="2"/>
      <line id="Line_348" data-name="Line 348" y2="2.871" transform="translate(51.411 11.476)" fill="none" stroke="#00a79e" stroke-linecap="round" stroke-miterlimit="10" stroke-width="2"/>
      <line id="Line_349" data-name="Line 349" y2="2.871" transform="translate(61.366 11.476)" fill="none" stroke="#00a79e" stroke-linecap="round" stroke-miterlimit="10" stroke-width="2"/>
      <line id="Line_350" data-name="Line 350" y2="2.871" transform="translate(1.634 20.518)" fill="none" stroke="#00a79e" stroke-linecap="round" stroke-miterlimit="10" stroke-width="2"/>
      <line id="Line_351" data-name="Line 351" y2="2.871" transform="translate(11.59 20.518)" fill="none" stroke="#00a79e" stroke-linecap="round" stroke-miterlimit="10" stroke-width="2"/>
      <line id="Line_352" data-name="Line 352" y2="2.871" transform="translate(21.545 20.518)" fill="none" stroke="#00a79e" stroke-linecap="round" stroke-miterlimit="10" stroke-width="2"/>
      <line id="Line_353" data-name="Line 353" y2="2.871" transform="translate(31.5 20.518)" fill="none" stroke="#00a79e" stroke-linecap="round" stroke-miterlimit="10" stroke-width="2"/>
      <line id="Line_354" data-name="Line 354" y2="2.871" transform="translate(41.456 20.518)" fill="none" stroke="#00a79e" stroke-linecap="round" stroke-miterlimit="10" stroke-width="2"/>
      <line id="Line_355" data-name="Line 355" y2="2.871" transform="translate(51.411 20.518)" fill="none" stroke="#00a79e" stroke-linecap="round" stroke-miterlimit="10" stroke-width="2"/>
      <line id="Line_356" data-name="Line 356" y2="2.871" transform="translate(61.366 20.518)" fill="none" stroke="#00a79e" stroke-linecap="round" stroke-miterlimit="10" stroke-width="2"/>
      <line id="Line_357" data-name="Line 357" y2="2.871" transform="translate(1.634 29.56)" fill="none" stroke="#00a79e" stroke-linecap="round" stroke-miterlimit="10" stroke-width="2"/>
      <line id="Line_358" data-name="Line 358" y2="2.871" transform="translate(11.59 29.56)" fill="none" stroke="#00a79e" stroke-linecap="round" stroke-miterlimit="10" stroke-width="2"/>
      <line id="Line_359" data-name="Line 359" y2="2.871" transform="translate(21.545 29.56)" fill="none" stroke="#00a79e" stroke-linecap="round" stroke-miterlimit="10" stroke-width="2"/>
      <line id="Line_360" data-name="Line 360" y2="2.871" transform="translate(31.5 29.56)" fill="none" stroke="#00a79e" stroke-linecap="round" stroke-miterlimit="10" stroke-width="2"/>
      <line id="Line_361" data-name="Line 361" y2="2.871" transform="translate(41.456 29.56)" fill="none" stroke="#00a79e" stroke-linecap="round" stroke-miterlimit="10" stroke-width="2"/>
      <line id="Line_362" data-name="Line 362" y2="2.871" transform="translate(51.411 29.56)" fill="none" stroke="#00a79e" stroke-linecap="round" stroke-miterlimit="10" stroke-width="2"/>
      <line id="Line_363" data-name="Line 363" y2="2.871" transform="translate(61.366 29.56)" fill="none" stroke="#00a79e" stroke-linecap="round" stroke-miterlimit="10" stroke-width="2"/>
      <line id="Line_364" data-name="Line 364" x2="62.568" transform="translate(0 6.965)" fill="none" stroke="#00a79e" stroke-linecap="round" stroke-miterlimit="10" stroke-width="2"/>
    </g>
    <line id="Line_365" data-name="Line 365" x1="26.497" transform="translate(-233.379 661.002)" fill="none" stroke="#00a79e" stroke-linecap="round" stroke-miterlimit="10" stroke-width="2"/>
  </g>
</svg>
