<svg xmlns="http://www.w3.org/2000/svg" width="74.002" height="65.188" viewBox="0 0 74.002 65.188">
  <g id="Icon_Mo" data-name="Icon Mo" transform="translate(1 1)">
    <path id="Path_22338" data-name="Path 22338" d="M5675.814,752.357h72v-37.55h-72v37.55Z" transform="translate(-5675.814 -714.807)" fill="none" stroke="#00a79e" stroke-linecap="round" stroke-linejoin="round" stroke-width="2"/>
    <path id="Path_22339" data-name="Path 22339" d="M5697.431,742.287c5.063,0,9.165-5.47,9.165-12.219s-4.1-12.219-9.165-12.219-9.165,5.47-9.165,12.219,4.1,12.219,9.165,12.219Z" transform="translate(-5661.43 -711.293)" fill="none" stroke="#00a79e" stroke-linecap="round" stroke-linejoin="round" stroke-width="2"/>
    <path id="Path_22340" data-name="Path 22340" d="M5687.957,737.518a11.3,11.3,0,0,0-11.3-11.3" transform="translate(-5674.844 -701.623)" fill="none" stroke="#00a79e" stroke-linecap="round" stroke-linejoin="round" stroke-width="2"/>
    <path id="Path_22341" data-name="Path 22341" d="M5703.137,737.518a11.3,11.3,0,0,1,11.3-11.3" transform="translate(-5644.25 -701.623)" fill="none" stroke="#00a79e" stroke-linecap="round" stroke-linejoin="round" stroke-width="2"/>
    <path id="Path_22342" data-name="Path 22342" d="M5687.957,715.575a11.3,11.3,0,0,1-11.3,11.3" transform="translate(-5674.844 -713.92)" fill="none" stroke="#00a79e" stroke-linecap="round" stroke-linejoin="round" stroke-width="2"/>
    <path id="Path_22343" data-name="Path 22343" d="M5703.137,715.575a11.3,11.3,0,0,0,11.3,11.3" transform="translate(-5644.25 -713.92)" fill="none" stroke="#00a79e" stroke-linecap="round" stroke-linejoin="round" stroke-width="2"/>
    <path id="Path_22344" data-name="Path 22344" d="M5685.273,727.156a2.369,2.369,0,1,0-2.369-2.369,2.369,2.369,0,0,0,2.369,2.369Z" transform="translate(-5667.626 -706.013)" fill="none" stroke="#00a79e" stroke-linecap="round" stroke-linejoin="round" stroke-width="2"/>
    <path id="Path_22345" data-name="Path 22345" d="M5702.288,727.156a2.369,2.369,0,1,0-2.369-2.369,2.371,2.371,0,0,0,2.369,2.369Z" transform="translate(-5647.968 -706.013)" fill="none" stroke="#00a79e" stroke-linecap="round" stroke-linejoin="round" stroke-width="2"/>
    <line id="Line_303" data-name="Line 303" x2="71.487" transform="translate(0.258 46.296)" fill="none" stroke="#00a79e" stroke-linecap="round" stroke-linejoin="round" stroke-width="2"/>
    <line id="Line_304" data-name="Line 304" x2="71.487" transform="translate(0.258 54.742)" fill="none" stroke="#00a79e" stroke-linecap="round" stroke-linejoin="round" stroke-width="2"/>
    <line id="Line_305" data-name="Line 305" x2="71.487" transform="translate(0.258 63.187)" fill="none" stroke="#00a79e" stroke-linecap="round" stroke-linejoin="round" stroke-width="2"/>
  </g>
</svg>
