<svg xmlns="http://www.w3.org/2000/svg" width="38.905" height="39.05" viewBox="0 0 7.781 7.81">
  <metadata><?xpacket begin="﻿" id="W5M0MpCehiHzreSzNTczkc9d"?>
<x:xmpmeta xmlns:x="adobe:ns:meta/" x:xmptk="Adobe XMP Core 5.6-c138 79.159824, 2016/09/14-01:09:01        ">
   <rdf:RDF xmlns:rdf="http://www.w3.org/1999/02/22-rdf-syntax-ns#">
      <rdf:Description rdf:about=""/>
   </rdf:RDF>
</x:xmpmeta>
                                                                                                    
                                                                                                    
                                                                                                    
                                                                                                    
                                                                                                    
                                                                                                    
                                                                                                    
                                                                                                    
                                                                                                    
                                                                                                    
                                                                                                    
                                                                                                    
                                                                                                    
                                                                                                    
                                                                                                    
                                                                                                    
                                                                                                    
                                                                                                    
                                                                                                    
                                                                                                    
                           
<?xpacket end="w"?></metadata>
<defs>
    <style>
      .cls-1 {
        fill: #00a79e;
        fill-rule: evenodd;
      }
    </style>
  </defs>
  <path id="Path_12280" data-name="Path 12280" class="cls-1" d="M750.4,3183.13h-1.464a0.915,0.915,0,0,0-.718.19,0.59,0.59,0,0,0-.17.44,2.605,2.605,0,0,1-2.251-2.25,0.644,0.644,0,0,0,.44-0.18,0.917,0.917,0,0,0,.187-0.71v-1.47a0.951,0.951,0,0,0-.187-0.72,0.64,0.64,0,0,0-.462-0.17h-1.3a0.978,0.978,0,0,0-.973.98v1.29a5.526,5.526,0,0,0,5.515,5.52h1.3a0.975,0.975,0,0,0,.973-0.97v-1.3a0.6,0.6,0,0,0-.172-0.46A0.914,0.914,0,0,0,750.4,3183.13Zm0.242,1.95a0.327,0.327,0,0,1-.325.32h-1.3a4.871,4.871,0,0,1-4.866-4.87v-1.29a0.328,0.328,0,0,1,.324-0.33h1.292a2.017,2.017,0,0,1,.006.24v1.47a2.077,2.077,0,0,1-.006.24h-0.643v0.32a3.252,3.252,0,0,0,3.245,3.25h0.324v-0.65h1.947v1.3Z" transform="translate(-743.5 -3178.25)"/>
</svg>
