<svg xmlns="http://www.w3.org/2000/svg" width="45" height="45" viewBox="0 0 9 9">
  <metadata><?xpacket begin="﻿" id="W5M0MpCehiHzreSzNTczkc9d"?>
<x:xmpmeta xmlns:x="adobe:ns:meta/" x:xmptk="Adobe XMP Core 5.6-c138 79.159824, 2016/09/14-01:09:01        ">
   <rdf:RDF xmlns:rdf="http://www.w3.org/1999/02/22-rdf-syntax-ns#">
      <rdf:Description rdf:about=""/>
   </rdf:RDF>
</x:xmpmeta>
                                                                                                    
                                                                                                    
                                                                                                    
                                                                                                    
                                                                                                    
                                                                                                    
                                                                                                    
                                                                                                    
                                                                                                    
                                                                                                    
                                                                                                    
                                                                                                    
                                                                                                    
                                                                                                    
                                                                                                    
                                                                                                    
                                                                                                    
                                                                                                    
                                                                                                    
                                                                                                    
                           
<?xpacket end="w"?></metadata>
<defs>
    <style>
      .cls-1 {
        fill: #00a79e;
        fill-rule: evenodd;
      }
    </style>
  </defs>
  <path id="Path_12246" data-name="Path 12246" class="cls-1" d="M748.78,3117.66v0.89a1.557,1.557,0,0,1-.657.15v-1.21l3.047-4.69a4.82,4.82,0,0,0-.6-0.5v0.99l-0.656,1.02v-2.39a4.553,4.553,0,0,0-3.82,0v2.39l-0.657-1.02v-0.99a4.884,4.884,0,0,0-.6.5l3.046,4.69v1.21a1.557,1.557,0,0,1-.657-0.15v-0.89l-2.818-4.37a4.5,4.5,0,0,0,2.818,7.15v-0.75a3.347,3.347,0,0,0,.657.08v0.74h0.239v-0.74a3.347,3.347,0,0,0,.657-0.08v0.75a4.5,4.5,0,0,0,3.728-4.44,4.459,4.459,0,0,0-.91-2.71Zm1.79-.99a4.449,4.449,0,0,1-.129,1.08,2.488,2.488,0,0,1-.433.92,2.213,2.213,0,0,1-.8.63,3.163,3.163,0,0,1-2.417,0,2.221,2.221,0,0,1-.8-0.63,2.488,2.488,0,0,1-.433-0.92,4.449,4.449,0,0,1-.129-1.08v-1.36l0.657,1.02v0.17a4.861,4.861,0,0,0,.069.8,2.448,2.448,0,0,0,.274.8,1.74,1.74,0,0,0,.577.61c0.032,0.02.07,0.03,0.105,0.05h0.008a1.761,1.761,0,0,0,.732.18h0.289a1.761,1.761,0,0,0,.732-0.18h0.009c0.035-.02.072-0.03,0.105-0.05a1.749,1.749,0,0,0,.577-0.61,2.446,2.446,0,0,0,.273-0.8,4.866,4.866,0,0,0,.07-0.8v-0.17l0.656-1.02v1.36Z" transform="translate(-743.5 -3111.5)"/>
</svg>
