<svg xmlns="http://www.w3.org/2000/svg" width="104.53" height="104.159" viewBox="0 0 104.53 104.159">
  <g id="Group_5036" data-name="Group 5036" transform="translate(1 1)">
    <path id="Path_22352" data-name="Path 22352" d="M575.194,334.168a42.973,42.973,0,1,1-9.447-9.447" transform="translate(-497.477 -300.283)" fill="none" stroke="#00a79e" stroke-linecap="round" stroke-linejoin="round" stroke-width="2"/>
    <path id="Path_22353" data-name="Path 22353" d="M557.5,333.455a31.174,31.174,0,1,1-9.447-9.443" transform="translate(-488.275 -291.08)" fill="none" stroke="#00a79e" stroke-linecap="round" stroke-linejoin="round" stroke-width="2"/>
    <path id="Path_22354" data-name="Path 22354" d="M539.62,332.928a19.364,19.364,0,1,1-9.443-9.443" transform="translate(-479.073 -281.877)" fill="none" stroke="#00a79e" stroke-linecap="round" stroke-linejoin="round" stroke-width="2"/>
    <path id="Path_22355" data-name="Path 22355" d="M520.06,333.819a7.556,7.556,0,1,1-9.442-9.443" transform="translate(-469.868 -272.414)" fill="none" stroke="#00a79e" stroke-linecap="round" stroke-linejoin="round" stroke-width="2"/>
    <line id="Line_311" data-name="Line 311" y1="53.683" x2="53.684" transform="translate(43.537 5.113)" fill="none" stroke="#00a79e" stroke-linecap="round" stroke-linejoin="round" stroke-width="2"/>
    <path id="Path_22356" data-name="Path 22356" d="M514.9,328.409l10.862,3.414,12.662-12.663-10.861-3.414" transform="translate(-435.89 -302.927)" fill="none" stroke="#00a79e" stroke-linecap="round" stroke-linejoin="round" stroke-width="2"/>
    <path id="Path_22357" data-name="Path 22357" d="M517.127,336.443l-3.414-10.861,12.663-12.662,3.414,10.861" transform="translate(-440.079 -312.92)" fill="none" stroke="#00a79e" stroke-linecap="round" stroke-linejoin="round" stroke-width="2"/>
  </g>
</svg>
