<svg xmlns="http://www.w3.org/2000/svg" width="179.902" height="179.902" viewBox="0 0 179.902 179.902">
  <g id="Group_5361" data-name="Group 5361" transform="translate(-5321.421 3973.743)">
    <circle id="Ellipse_319" data-name="Ellipse 319" cx="68.332" cy="68.332" r="68.332" transform="translate(5322.092 -3846.811) rotate(-67.5)" fill="#fff" stroke="#344154" stroke-miterlimit="10" stroke-width="1.027"/>
    <g id="Group_5302" data-name="Group 5302" transform="translate(5372.494 -3914.935)">
      <path id="Path_22561" data-name="Path 22561" d="M5346.115-3933.833h-4.178l-6.159,5.127h9.454c-.077.895-.112,1.738-.112,2.574s.035,1.664.112,2.552h-3.295l-6.159,5.126h10.335A31.042,31.042,0,0,0,5376.271-3895a31.142,31.142,0,0,0,19.906-7.207l.395-.328-4.037-3.359-.272.214a25.632,25.632,0,0,1-15.992,5.553,26.126,26.126,0,0,1-24.841-18.325h19.856l6.159-5.126h-27.062a25.176,25.176,0,0,1-.136-2.552,25.712,25.712,0,0,1,.136-2.574h20.9l6.159-5.127h-26.016a26.138,26.138,0,0,1,24.841-18.326,25.631,25.631,0,0,1,15.992,5.558l.272.214,4.037-3.362-.395-.328a31.148,31.148,0,0,0-19.906-7.207A31.043,31.043,0,0,0,5346.115-3933.833Z" transform="translate(-5335.778 3957.285)" fill="#00a79e"/>
    </g>
    <circle id="Ellipse_320" data-name="Ellipse 320" cx="52.862" cy="52.862" r="52.862" transform="translate(5342.305 -3855.184) rotate(-67.5)" fill="none" stroke="#344154" stroke-miterlimit="10" stroke-width="1.027"/>
    <path id="Path_22562" data-name="Path 22562" d="M5347.249-3964.917a.568.568,0,0,0-.567-.568.566.566,0,0,0-.566.568.566.566,0,0,0,.566.567A.567.567,0,0,0,5347.249-3964.917Z" transform="translate(64.45 20.353)" fill="none" stroke="#344154" stroke-miterlimit="10" stroke-width="1.027"/>
    <path id="Path_22563" data-name="Path 22563" d="M5341.575-3964.094a.564.564,0,0,0-.724-.34.568.568,0,0,0-.342.726.568.568,0,0,0,.728.34A.566.566,0,0,0,5341.575-3964.094Z" transform="translate(49.32 23.085)" fill="none" stroke="#344154" stroke-miterlimit="10" stroke-width="1.027"/>
    <path id="Path_22564" data-name="Path 22564" d="M5336.525-3961.378a.561.561,0,0,0-.8-.07.562.562,0,0,0-.07.8.562.562,0,0,0,.8.07A.565.565,0,0,0,5336.525-3961.378Z" transform="translate(36.035 30.824)" fill="none" stroke="#344154" stroke-miterlimit="10" stroke-width="1.027"/>
    <path id="Path_22565" data-name="Path 22565" d="M5332.707-3957.1a.567.567,0,0,0-.774.206.567.567,0,0,0,.206.774.568.568,0,0,0,.778-.206A.568.568,0,0,0,5332.707-3957.1Z" transform="translate(26.198 42.641)" fill="none" stroke="#344154" stroke-miterlimit="10" stroke-width="1.027"/>
    <path id="Path_22566" data-name="Path 22566" d="M5330.583-3951.777a.572.572,0,0,0-.655.46.568.568,0,0,0,.461.66.568.568,0,0,0,.654-.46A.568.568,0,0,0,5330.583-3951.777Z" transform="translate(20.996 57.108)" fill="none" stroke="#344154" stroke-miterlimit="10" stroke-width="1.027"/>
    <path id="Path_22567" data-name="Path 22567" d="M5330.41-3946.046a.57.57,0,0,0-.46.659.564.564,0,0,0,.658.457.563.563,0,0,0,.46-.655A.572.572,0,0,0,5330.41-3946.046Z" transform="translate(21.058 72.484)" fill="none" stroke="#344154" stroke-miterlimit="10" stroke-width="1.027"/>
    <path id="Path_22568" data-name="Path 22568" d="M5332.208-3940.6a.565.565,0,0,0-.21.772.569.569,0,0,0,.775.21.574.574,0,0,0,.208-.777A.569.569,0,0,0,5332.208-3940.6Z" transform="translate(26.373 86.911)" fill="none" stroke="#344154" stroke-miterlimit="10" stroke-width="1.027"/>
    <path id="Path_22569" data-name="Path 22569" d="M5335.758-3936.1a.564.564,0,0,0,.07.8.568.568,0,0,0,.8-.07.569.569,0,0,0-.07-.8A.564.564,0,0,0,5335.758-3936.1Z" transform="translate(36.304 98.651)" fill="none" stroke="#344154" stroke-miterlimit="10" stroke-width="1.027"/>
    <path id="Path_22570" data-name="Path 22570" d="M5340.633-3933.082a.565.565,0,0,0,.34.726.57.57,0,0,0,.728-.34.569.569,0,0,0-.337-.726A.571.571,0,0,0,5340.633-3933.082Z" transform="translate(49.647 106.285)" fill="none" stroke="#344154" stroke-miterlimit="10" stroke-width="1.027"/>
    <path id="Path_22571" data-name="Path 22571" d="M5346.246-3931.918a.566.566,0,0,0,.566.567.567.567,0,0,0,.567-.567.564.564,0,0,0-.567-.563A.563.563,0,0,0,5346.246-3931.918Z" transform="translate(64.801 108.896)" fill="none" stroke="#344154" stroke-miterlimit="10" stroke-width="1.027"/>
    <path id="Path_22572" data-name="Path 22572" d="M5351.92-3932.736a.566.566,0,0,0,.726.339.572.572,0,0,0,.34-.729.568.568,0,0,0-.728-.34A.574.574,0,0,0,5351.92-3932.736Z" transform="translate(79.93 106.165)" fill="none" stroke="#344154" stroke-miterlimit="10" stroke-width="1.027"/>
    <path id="Path_22573" data-name="Path 22573" d="M5356.968-3935.453a.566.566,0,0,0,.8.07.564.564,0,0,0,.07-.8.564.564,0,0,0-.8-.07A.57.57,0,0,0,5356.968-3935.453Z" transform="translate(93.217 98.424)" fill="none" stroke="#344154" stroke-miterlimit="10" stroke-width="1.027"/>
    <path id="Path_22574" data-name="Path 22574" d="M5360.791-3939.732a.566.566,0,0,0,.772-.21.568.568,0,0,0-.207-.773.571.571,0,0,0-.775.207A.568.568,0,0,0,5360.791-3939.732Z" transform="translate(103.05 86.61)" fill="none" stroke="#344154" stroke-miterlimit="10" stroke-width="1.027"/>
    <path id="Path_22575" data-name="Path 22575" d="M5362.912-3945.058a.569.569,0,0,0,.658-.46.565.565,0,0,0-.461-.655.564.564,0,0,0-.657.46A.567.567,0,0,0,5362.912-3945.058Z" transform="translate(108.253 72.14)" fill="none" stroke="#344154" stroke-miterlimit="10" stroke-width="1.027"/>
    <path id="Path_22576" data-name="Path 22576" d="M5363.084-3950.789a.564.564,0,0,0,.461-.656.564.564,0,0,0-.655-.46.569.569,0,0,0-.463.656A.569.569,0,0,0,5363.084-3950.789Z" transform="translate(108.193 56.765)" fill="none" stroke="#344154" stroke-miterlimit="10" stroke-width="1.027"/>
    <circle id="Ellipse_321" data-name="Ellipse 321" cx="0.567" cy="0.567" r="0.567" transform="translate(5463.315 -3914.953)" fill="none" stroke="#344154" stroke-miterlimit="10" stroke-width="1.027"/>
    <path id="Path_22577" data-name="Path 22577" d="M5357.736-3960.734a.565.565,0,0,0-.068-.8.568.568,0,0,0-.8.069.573.573,0,0,0,.069.8A.569.569,0,0,0,5357.736-3960.734Z" transform="translate(92.947 30.6)" fill="none" stroke="#344154" stroke-miterlimit="10" stroke-width="1.027"/>
    <path id="Path_22578" data-name="Path 22578" d="M5352.866-3963.752a.574.574,0,0,0-.34-.726.571.571,0,0,0-.729.34.566.566,0,0,0,.34.724A.568.568,0,0,0,5352.866-3963.752Z" transform="translate(79.602 22.964)" fill="none" stroke="#344154" stroke-miterlimit="10" stroke-width="1.027"/>
  </g>
</svg>
