<svg xmlns="http://www.w3.org/2000/svg" width="38.905" height="29.2" viewBox="0 0 7.781 5.84">
  <metadata><?xpacket begin="﻿" id="W5M0MpCehiHzreSzNTczkc9d"?>
<x:xmpmeta xmlns:x="adobe:ns:meta/" x:xmptk="Adobe XMP Core 5.6-c138 79.159824, 2016/09/14-01:09:01        ">
   <rdf:RDF xmlns:rdf="http://www.w3.org/1999/02/22-rdf-syntax-ns#">
      <rdf:Description rdf:about=""/>
   </rdf:RDF>
</x:xmpmeta>
                                                                                                    
                                                                                                    
                                                                                                    
                                                                                                    
                                                                                                    
                                                                                                    
                                                                                                    
                                                                                                    
                                                                                                    
                                                                                                    
                                                                                                    
                                                                                                    
                                                                                                    
                                                                                                    
                                                                                                    
                                                                                                    
                                                                                                    
                                                                                                    
                                                                                                    
                                                                                                    
                           
<?xpacket end="w"?></metadata>
<defs>
    <style>
      .cls-1 {
        fill: #00a79e;
        fill-rule: evenodd;
      }
    </style>
  </defs>
  <path id="Path_12281" data-name="Path 12281" class="cls-1" d="M750.73,3199.76l0-.01h0a0.939,0.939,0,0,0-.41-0.09h-5.84a0.944,0.944,0,0,0-.375.08l-0.01-.01-0.03.03a0.963,0.963,0,0,0-.558.87v3.9a0.975,0.975,0,0,0,.973.97h5.84a0.975,0.975,0,0,0,.973-0.97v-3.9A0.963,0.963,0,0,0,750.73,3199.76Zm-1.79,2.64,1.7-1.66v3.31Zm1.214-2.09-2.487,2.42a0.363,0.363,0,0,1-.5,0l-2.486-2.42h5.468Zm-6,3.8v-3.42l1.732,1.69Zm0.324,0.74a0.519,0.519,0,0,1-.127-0.02l2-2,0.372,0.37a1.018,1.018,0,0,0,1.4,0l0.355-.35,2,1.95a0.31,0.31,0,0,1-.164.05h-5.84Z" transform="translate(-743.5 -3199.66)"/>
</svg>
