<svg xmlns="http://www.w3.org/2000/svg" width="70.676" height="93.1" viewBox="0 0 70.676 93.1">
  <g id="Group_5241" data-name="Group 5241" transform="translate(-656.43 -1411.656)">
    <path id="Path_22451" data-name="Path 22451" d="M702.413,1417.789v-.292c0-2.673-2.482-4.841-5.545-4.841h0c-3.062,0-5.545,2.168-5.545,4.841v.292" transform="translate(-5.1)" fill="none" stroke="#00a79e" stroke-miterlimit="10" stroke-width="2"/>
    <path id="Path_22452" data-name="Path 22452" d="M684.01,1420.925v10.2a1.886,1.886,0,0,0,2,1.746h.8a1.929,1.929,0,0,0,1.983-1.52l.032-.217c.455-3.044,3.425-5.321,6.941-5.321h0c3.516,0,6.487,2.277,6.941,5.321l.032.217a1.929,1.929,0,0,0,1.983,1.52h0a1.886,1.886,0,0,0,2-1.746v-10.2a1.457,1.457,0,0,0-1.544-1.348H685.555A1.457,1.457,0,0,0,684.01,1420.925Z" transform="translate(-4 -1.788)" fill="none" stroke="#00a79e" stroke-miterlimit="10" stroke-width="2"/>
    <path id="Path_22453" data-name="Path 22453" d="M680.01,1425.081H662.841c-2.989,0-5.411,2.115-5.411,4.724v72.436c0,2.609,2.423,4.724,5.411,4.724h57.853c2.989,0,5.411-2.115,5.411-4.724v-72.436c0-2.609-2.423-4.724-5.411-4.724H702.724" transform="translate(0 -3.21)" fill="none" stroke="#00a79e" stroke-miterlimit="10" stroke-width="2"/>
    <path id="Path_22454" data-name="Path 22454" d="M675.312,1434.518h-8.445v67.887h40.761l11.881-10.373v-57.514h-8.446" transform="translate(-1.42 -5.648)" fill="none" stroke="#00a79e" stroke-linecap="round" stroke-miterlimit="10" stroke-width="2"/>
    <path id="Path_22455" data-name="Path 22455" d="M688.945,1473.489l-6.358,5.881-3.076-2.685" transform="translate(-3.323 -15.716)" fill="none" stroke="#00a79e" stroke-miterlimit="10" stroke-width="2"/>
    <line id="Line_366" data-name="Line 366" y1="6.62" x2="7.582" transform="translate(676.503 1440.681)" fill="none" stroke="#00a79e" stroke-miterlimit="10" stroke-width="2"/>
    <line id="Line_367" data-name="Line 367" x1="7.582" y1="6.62" transform="translate(676.503 1440.681)" fill="none" stroke="#00a79e" stroke-miterlimit="10" stroke-width="2"/>
    <line id="Line_368" data-name="Line 368" y1="6.62" x2="7.582" transform="translate(676.503 1474.788)" fill="none" stroke="#00a79e" stroke-miterlimit="10" stroke-width="2"/>
    <line id="Line_369" data-name="Line 369" x1="7.582" y1="6.62" transform="translate(676.503 1474.788)" fill="none" stroke="#00a79e" stroke-miterlimit="10" stroke-width="2"/>
    <line id="Line_370" data-name="Line 370" x2="21.945" transform="translate(689.496 1447.3)" fill="none" stroke="#00a79e" stroke-miterlimit="10" stroke-width="2"/>
    <line id="Line_371" data-name="Line 371" x2="21.945" transform="translate(689.496 1464.042)" fill="none" stroke="#00a79e" stroke-miterlimit="10" stroke-width="2"/>
    <path id="Path_22456" data-name="Path 22456" d="M711.864,1517.455v-8.372h9.59" transform="translate(-8.192 -24.912)" fill="none" stroke="#00a79e" stroke-linecap="round" stroke-miterlimit="10" stroke-width="2"/>
  </g>
</svg>
