<svg xmlns="http://www.w3.org/2000/svg" width="157.119" height="124.4" viewBox="0 0 157.119 124.4">
  <g id="Group_5249" data-name="Group 5249" transform="translate(602.959 -1969.947)">
    <path id="Path_22458" data-name="Path 22458" d="M-535.053,2047.786a1.216,1.216,0,0,1-1.215,1.217,1.216,1.216,0,0,1-1.216-1.217,1.216,1.216,0,0,1,1.216-1.215A1.215,1.215,0,0,1-535.053,2047.786Z" transform="translate(11.869 13.938)" fill="none" stroke="#344154" stroke-linecap="round" stroke-linejoin="round" stroke-width="3"/>
    <path id="Path_22459" data-name="Path 22459" d="M-531.525,2054.061h21.776a43.453,43.453,0,0,0,.583,11.025c.842,4.188,3.919,7.906,8.477,10.24h0c1.274.653.678,2.193-.849,2.193h-59.975c-1.527,0-2.122-1.54-.848-2.193h0c4.556-2.334,7.635-6.052,8.477-10.24a43.483,43.483,0,0,0,.582-11.025Z" transform="translate(7.125 15.327)" fill="none" stroke="#344154" stroke-linecap="round" stroke-linejoin="round" stroke-width="3"/>
    <path id="Rectangle_3295" data-name="Rectangle 3295" d="M5.881,0H148.237a5.881,5.881,0,0,1,5.881,5.881V92.06a5.882,5.882,0,0,1-5.882,5.882H5.882A5.882,5.882,0,0,1,0,92.06V5.881A5.881,5.881,0,0,1,5.881,0Z" transform="translate(-601.459 1971.447)" fill="none" stroke="#344154" stroke-linecap="round" stroke-linejoin="round" stroke-width="3"/>
    <g id="Group_5248" data-name="Group 5248" transform="translate(-585.106 1988.32)">
      <g id="Group_5244" data-name="Group 5244">
        <rect id="Rectangle_3296" data-name="Rectangle 3296" width="13.737" height="13.737" fill="none" stroke="#344154" stroke-linecap="round" stroke-linejoin="round" stroke-width="3"/>
        <rect id="Rectangle_3297" data-name="Rectangle 3297" width="13.737" height="13.737" transform="translate(26.744)" stroke-width="3" stroke="#344154" stroke-linecap="round" stroke-linejoin="round" fill="none"/>
        <rect id="Rectangle_3298" data-name="Rectangle 3298" width="13.737" height="13.737" transform="translate(53.487)" stroke-width="3" stroke="#344154" stroke-linecap="round" stroke-linejoin="round" fill="none"/>
        <rect id="Rectangle_3299" data-name="Rectangle 3299" width="13.737" height="13.737" transform="translate(80.231)" stroke-width="3" stroke="#344154" stroke-linecap="round" stroke-linejoin="round" fill="none"/>
        <rect id="Rectangle_3300" data-name="Rectangle 3300" width="13.737" height="13.737" transform="translate(106.974)" stroke-width="3" stroke="#00a79e" stroke-linecap="round" stroke-linejoin="round" fill="none"/>
      </g>
      <g id="Group_5245" data-name="Group 5245" transform="translate(0 22.925)">
        <rect id="Rectangle_3301" data-name="Rectangle 3301" width="40.09" height="20.614" fill="none" stroke="#344154" stroke-linecap="round" stroke-linejoin="round" stroke-width="3"/>
      </g>
      <g id="Group_5246" data-name="Group 5246" transform="translate(52.062 22.925)">
        <rect id="Rectangle_3302" data-name="Rectangle 3302" width="69.349" height="20.614" fill="none" stroke="#344154" stroke-linecap="round" stroke-linejoin="round" stroke-width="3"/>
      </g>
      <g id="Group_5247" data-name="Group 5247" transform="translate(0.135 51.958)">
        <rect id="Rectangle_3303" data-name="Rectangle 3303" width="121.277" height="13.753" fill="none" stroke="#344154" stroke-linecap="round" stroke-linejoin="round" stroke-width="3"/>
      </g>
    </g>
  </g>
</svg>
