<svg xmlns="http://www.w3.org/2000/svg" width="403.85" height="482.14" viewBox="0 0 403.85 482.14">
  <g id="Group_5231" data-name="Group 5231" transform="translate(-2755.751 -5481.638)" opacity="0.13">
    <path id="Path_12262" data-name="Path 12262" d="M2924.066,5945.7v42.028a254.18,254.18,0,0,0,36.892,3.668v-41.357A194.281,194.281,0,0,1,2924.066,5945.7Z" transform="translate(-10.016 -27.616)" fill="#c3c3c3"/>
    <path id="Path_12263" data-name="Path 12263" d="M2914.05,5857.189c9.772,4.985,22.123,7.832,36.892,8.5v-68.014L2779.81,5534a254.338,254.338,0,0,0-24.06,27.464l158.3,245.353Z" transform="translate(0 -3.116)" fill="#c3c3c3"/>
    <path id="Path_12264" data-name="Path 12264" d="M2854.017,5615.452V5481.638a252.877,252.877,0,0,0-36.892,21.27v55.7Z" transform="translate(-3.652 0)" fill="#c3c3c3"/>
    <path id="Path_12265" data-name="Path 12265" d="M2977.613,5865.688c14.768-.667,27.118-3.514,36.891-8.5v-50.374l158.3-245.353a254.374,254.374,0,0,0-24.06-27.463l-171.131,263.675Z" transform="translate(-13.203 -3.116)" fill="#c3c3c3"/>
    <path id="Path_12266" data-name="Path 12266" d="M3121.447,5558.612v-55.7a252.718,252.718,0,0,0-36.89-21.269v133.813Z" transform="translate(-19.567 0)" fill="#c3c3c3"/>
    <path id="Path_12267" data-name="Path 12267" d="M3068.642,5750.589a282.282,282.282,0,0,1-3.914,45.275,137.107,137.107,0,0,1-15.36,44.722,94.516,94.516,0,0,1-32.431,34.092c-1.819,1.165-3.928,2.044-5.9,3.057l-.109.089c-.114.057-.247.1-.362.155q-16.84,8.487-41.116,9.7c-.273.014-.516.057-.791.07l-.03-.027c-2.448.109-4.743.371-7.3.371s-4.844-.262-7.288-.371l-.031.027c-.274-.011-.518-.055-.791-.069q-24.276-1.214-41.117-9.7c-.114-.058-.248-.1-.363-.155l-.1-.084c-1.977-1.015-4.09-1.9-5.911-3.062a94.537,94.537,0,0,1-32.434-34.092,136.482,136.482,0,0,1-15.359-44.722,280.562,280.562,0,0,1-3.91-45.275v-9.317l-36.892-57.176v76a249.948,249.948,0,0,0,7.263,60.923,139.291,139.291,0,0,0,24.306,51.424q17.058,22.368,44.728,35.775t67.9,13.411q40.257,0,67.912-13.411,27.68-13.417,44.73-35.775a139.752,139.752,0,0,0,24.305-51.424,250.726,250.726,0,0,0,7.263-60.923v-76l-36.89,57.175Z" transform="translate(-3.652 -12.049)" fill="#c3c3c3"/>
    <path id="Path_12268" data-name="Path 12268" d="M2977.613,5950.037v41.357a254.007,254.007,0,0,0,36.891-3.669V5945.7A194.463,194.463,0,0,1,2977.613,5950.037Z" transform="translate(-13.203 -27.616)" fill="#c3c3c3"/>
  </g>
</svg>
