<svg xmlns="http://www.w3.org/2000/svg" width="290.47" height="80" viewBox="0 0 58.094 16">
  <metadata><?xpacket begin="﻿" id="W5M0MpCehiHzreSzNTczkc9d"?>
<x:xmpmeta xmlns:x="adobe:ns:meta/" x:xmptk="Adobe XMP Core 5.6-c138 79.159824, 2016/09/14-01:09:01        ">
   <rdf:RDF xmlns:rdf="http://www.w3.org/1999/02/22-rdf-syntax-ns#">
      <rdf:Description rdf:about=""/>
   </rdf:RDF>
</x:xmpmeta>
                                                                                                    
                                                                                                    
                                                                                                    
                                                                                                    
                                                                                                    
                                                                                                    
                                                                                                    
                                                                                                    
                                                                                                    
                                                                                                    
                                                                                                    
                                                                                                    
                                                                                                    
                                                                                                    
                                                                                                    
                                                                                                    
                                                                                                    
                                                                                                    
                                                                                                    
                                                                                                    
                           
<?xpacket end="w"?></metadata>
<defs>
    <style>
      .cls-1 {
        fill: #fff;
        fill-rule: evenodd;
      }
    </style>
  </defs>
  <g>
    <path id="Path_12247" data-name="Path 12247" class="cls-1" d="M228.562,104.13l-3-4.649h0.911l2.469,3.876,2.526-3.876h0.853l-3,4.649v3.518h-0.761V104.13Z" transform="translate(-203.5 -96)"/>
    <path id="Path_12248" data-name="Path 12248" class="cls-1" d="M232.546,100.208a0.512,0.512,0,1,1,.15.369A0.5,0.5,0,0,1,232.546,100.208Zm0.173,2.111h0.692v5.329h-0.692v-5.329Z" transform="translate(-203.5 -96)"/>
    <path id="Path_12249" data-name="Path 12249" class="cls-1" d="M239.327,106.644a2.332,2.332,0,0,1-1,.877,3.186,3.186,0,0,1-1.309.265,2.844,2.844,0,0,1-1.107-.207,2.51,2.51,0,0,1-.854-0.583,2.568,2.568,0,0,1-.548-0.888,3.245,3.245,0,0,1-.19-1.137,3.045,3.045,0,0,1,.2-1.107,2.641,2.641,0,0,1,.554-0.882,2.577,2.577,0,0,1,.842-0.588,2.634,2.634,0,0,1,1.072-.214,2.578,2.578,0,0,1,1.079.214,2.363,2.363,0,0,1,.785.565,2.426,2.426,0,0,1,.478.8,2.665,2.665,0,0,1,.162.911v0.484h-4.476a2.4,2.4,0,0,0,.086.56,2,2,0,0,0,.935,1.216,1.922,1.922,0,0,0,1,.231,2.218,2.218,0,0,0,1.026-.254,1.841,1.841,0,0,0,.761-0.692Zm-0.531-2.11a1.578,1.578,0,0,0-.144-0.67,1.788,1.788,0,0,0-.392-0.547,1.849,1.849,0,0,0-.588-0.375,1.885,1.885,0,0,0-.721-0.139,1.769,1.769,0,0,0-.941.231,2.079,2.079,0,0,0-.593.53,2.151,2.151,0,0,0-.312.583,1.518,1.518,0,0,0-.092.387H238.8Z" transform="translate(-203.5 -96)"/>
    <path id="Path_12250" data-name="Path 12250" class="cls-1" d="M240.438,98.928h0.692v8.72h-0.692v-8.72Z" transform="translate(-203.5 -96)"/>
    <path id="Path_12251" data-name="Path 12251" class="cls-1" d="M247.032,106.713H247.01a1.8,1.8,0,0,1-.4.479,2.407,2.407,0,0,1-.525.334,2.572,2.572,0,0,1-.594.2,3.1,3.1,0,0,1-1.741-.143,2.588,2.588,0,0,1-.889-0.583,2.7,2.7,0,0,1-.577-0.888,3.158,3.158,0,0,1,0-2.249,2.693,2.693,0,0,1,.577-0.889,2.586,2.586,0,0,1,.889-0.582,3,3,0,0,1,1.13-.208,3.08,3.08,0,0,1,.611.064,2.572,2.572,0,0,1,.594.2,2.374,2.374,0,0,1,.525.335,1.808,1.808,0,0,1,.4.478h0.022V98.928h0.693v8.72h-0.693v-0.935Zm0.07-1.73a2.1,2.1,0,0,0-.173-0.847,2.171,2.171,0,0,0-.473-0.693,2.307,2.307,0,0,0-.7-0.467,2.205,2.205,0,0,0-.876-0.173,2.155,2.155,0,0,0-.877.173,2.069,2.069,0,0,0-.669.467,1.994,1.994,0,0,0-.421.693,2.566,2.566,0,0,0,0,1.7,1.99,1.99,0,0,0,.421.692,2.039,2.039,0,0,0,.669.467,2.139,2.139,0,0,0,.877.173,2.188,2.188,0,0,0,.876-0.173,2.271,2.271,0,0,0,.7-0.467,2.167,2.167,0,0,0,.473-0.692A2.109,2.109,0,0,0,247.1,104.983Z" transform="translate(-203.5 -96)"/>
    <path id="Path_12252" data-name="Path 12252" class="cls-1" d="M254.808,104.522a5.165,5.165,0,0,1-.15,1.257,2.882,2.882,0,0,1-.5,1.061,2.518,2.518,0,0,1-.923.738,3.684,3.684,0,0,1-2.8,0,2.518,2.518,0,0,1-.923-0.738,2.851,2.851,0,0,1-.5-1.061,5.165,5.165,0,0,1-.15-1.257V99.481h0.761v4.845a5.8,5.8,0,0,0,.081.934,2.8,2.8,0,0,0,.317.923,1.938,1.938,0,0,0,.669.7,2.515,2.515,0,0,0,2.295,0,1.955,1.955,0,0,0,.669-0.7,2.846,2.846,0,0,0,.317-0.923,5.8,5.8,0,0,0,.081-0.934V99.481h0.761v5.041Z" transform="translate(-203.5 -96)"/>
    <path id="Path_12253" data-name="Path 12253" class="cls-1" d="M255.939,102.319h0.692v0.934h0.023a1.793,1.793,0,0,1,.4-0.478,2.422,2.422,0,0,1,.525-0.335,2.62,2.62,0,0,1,.594-0.2,3.088,3.088,0,0,1,.611-0.064,2.96,2.96,0,0,1,1.125.208,2.611,2.611,0,0,1,1.47,1.471,3.144,3.144,0,0,1,0,2.249,2.611,2.611,0,0,1-1.47,1.471,2.979,2.979,0,0,1-1.125.207,3.015,3.015,0,0,1-.611-0.064,2.572,2.572,0,0,1-.594-0.2,2.456,2.456,0,0,1-.525-0.334,1.8,1.8,0,0,1-.4-0.479h-0.023v3.564h-0.692v-7.958Zm0.623,2.664a2.109,2.109,0,0,0,.173.848,2.167,2.167,0,0,0,.473.692,2.271,2.271,0,0,0,.7.467,2.188,2.188,0,0,0,.876.173,2.142,2.142,0,0,0,.877-0.173,2.039,2.039,0,0,0,.669-0.467,1.975,1.975,0,0,0,.421-0.692,2.566,2.566,0,0,0,0-1.7,1.979,1.979,0,0,0-.421-0.693,2.054,2.054,0,0,0-.669-0.467,2.158,2.158,0,0,0-.877-0.173,2.205,2.205,0,0,0-.876.173,2.289,2.289,0,0,0-.7.467,2.171,2.171,0,0,0-.473.693A2.1,2.1,0,0,0,256.562,104.983Z" transform="translate(-203.5 -96)"/>
  </g>
  <g>
    <g>
      <path id="Path_12254" data-name="Path 12254" class="cls-1" d="M210.239,110.024v1.214a7.21,7.21,0,0,0,1.066.106v-1.195A5.675,5.675,0,0,1,210.239,110.024Z" transform="translate(-203.5 -96)"/>
      <path id="Path_12255" data-name="Path 12255" class="cls-1" d="M210.239,108.174a2.6,2.6,0,0,0,1.066.246v-1.966l-4.945-7.619a7.423,7.423,0,0,0-.7.794l4.574,7.09v1.455Z" transform="translate(-203.5 -96)"/>
      <path id="Path_12256" data-name="Path 12256" class="cls-1" d="M208.4,101.279V97.412a7.3,7.3,0,0,0-1.066.615v1.61Z" transform="translate(-203.5 -96)"/>
      <path id="Path_12257" data-name="Path 12257" class="cls-1" d="M211.7,108.42a2.613,2.613,0,0,0,1.065-.246v-1.455l4.575-7.09a7.423,7.423,0,0,0-.7-0.794l-4.945,7.619v1.966Z" transform="translate(-203.5 -96)"/>
      <path id="Path_12258" data-name="Path 12258" class="cls-1" d="M215.667,99.637v-1.61a7.3,7.3,0,0,0-1.066-.615v3.867Z" transform="translate(-203.5 -96)"/>
      <path id="Path_12259" data-name="Path 12259" class="cls-1" d="M214.6,104.836a8.2,8.2,0,0,1-.113,1.308,3.961,3.961,0,0,1-.444,1.292,2.724,2.724,0,0,1-.937.985c-0.053.034-.114,0.06-0.171,0.089l0,0-0.01,0a2.961,2.961,0,0,1-1.188.28l-0.024,0h0c-0.071,0-.137.011-0.211,0.011s-0.14-.008-0.211-0.011h0l-0.023,0a2.944,2.944,0,0,1-1.188-.28l-0.01,0,0,0a1.838,1.838,0,0,1-.171-0.089,2.724,2.724,0,0,1-.937-0.985,3.938,3.938,0,0,1-.444-1.292,8.088,8.088,0,0,1-.113-1.308v-0.269l-1.066-1.652v2.2a7.233,7.233,0,0,0,.21,1.76,4.027,4.027,0,0,0,.7,1.486,3.518,3.518,0,0,0,1.292,1.034,5.167,5.167,0,0,0,3.924,0,3.526,3.526,0,0,0,1.292-1.034,4.027,4.027,0,0,0,.7-1.486,7.233,7.233,0,0,0,.21-1.76v-2.2l-1.066,1.652v0.269Z" transform="translate(-203.5 -96)"/>
      <path id="Path_12260" data-name="Path 12260" class="cls-1" d="M211.7,110.149v1.195a7.183,7.183,0,0,0,1.065-.106v-1.214A5.582,5.582,0,0,1,211.7,110.149Z" transform="translate(-203.5 -96)"/>
    </g>
    <path id="Path_12261" data-name="Path 12261" class="cls-1" d="M211.5,112a8,8,0,1,1,8-8A8.009,8.009,0,0,1,211.5,112Zm0-15.281A7.281,7.281,0,1,0,218.781,104,7.289,7.289,0,0,0,211.5,96.719Z" transform="translate(-203.5 -96)"/>
  </g>
</svg>
