<?xml version="1.0" encoding="utf-8"?><svg xmlns="http://www.w3.org/2000/svg" xmlns:xlink="http://www.w3.org/1999/xlink"><symbol viewBox="0 0 19.994 24" id="bag" xmlns="http://www.w3.org/2000/svg"><path fill-rule="evenodd" d="M14.996 15.56L13.923 3.953a.51.51 0 0 0-.513-.453h-2.208C11.171 1.564 9.523 0 7.5 0 5.476 0 3.829 1.564 3.798 3.5H1.59a.506.506 0 0 0-.513.453L.004 15.56c0 .014-.004.029-.004.043C0 16.925 1.261 18 2.813 18h9.374C13.739 18 15 16.925 15 15.603c0-.014 0-.029-.004-.043zM7.5.994c1.452 0 2.637 1.119 2.667 2.506H4.833C4.863 2.113 6.048.994 7.5.994zm4.687 16.012H2.813c-.973 0-1.763-.618-1.778-1.38L2.062 4.498h1.732v1.509c0 .276.23.497.517.497a.506.506 0 0 0 .518-.497V4.498h5.338v1.509c0 .276.23.497.518.497a.505.505 0 0 0 .517-.497V4.498h1.732l1.031 11.128c-.015.762-.808 1.38-1.778 1.38z"/></symbol><symbol viewBox="0 0 57.335 32.013" id="boot" xmlns="http://www.w3.org/2000/svg"><path fill-rule="evenodd" d="M16.476 21.074c-.779 0-.778-1.208 0-1.208h11.247c.779 0 .778 1.208 0 1.208H16.476zm23.858 2.176h-3.341c-.779 0-.777-1.208 0-1.208h3.341a.584.584 0 0 0 .582-.584v-2.559H2.083v.967h11.756c.779 0 .778 1.208 0 1.208H2.083v.146c0 .453.369.822.821.822H34.29c.779 0 .778 1.208 0 1.208H2.904a2.032 2.032 0 0 1-2.029-2.03v-7.843c0-.996.235-1.994.681-2.885l.001-.003.002-.004a5.278 5.278 0 0 0 .556-2.35V1.354c0-.334.27-.604.604-.604H5.03c.779 0 .778 1.208 0 1.208H3.323v6.177a6.48 6.48 0 0 1-.458 2.386l.379.236a14.368 14.368 0 0 1 5.755 6.933h20.764c-8.312-2.391-15.405-8.112-19.499-15.732H7.641c-.779 0-.778-1.208 0-1.208h6.317c.898 0 1.741.441 2.254 1.179l1.365 1.965a22.02 22.02 0 0 0 .936 1.25 21.714 21.714 0 0 0 1.623 1.8l.023.02c.016.015.03.031.044.047A21.623 21.623 0 0 0 23.7 9.805l.029.015a.625.625 0 0 1 .09.062c.572.362 1.161.698 1.765 1.005.04.015.077.033.112.055a21.846 21.846 0 0 0 5.182 1.825l8.22 1.774a3.86 3.86 0 0 1 3.027 3.754v3.163c0 .988-.804 1.792-1.791 1.792zM2.605 11.783l-.225-.14a5.28 5.28 0 0 0-.297 1.734v4.314h5.609a13.149 13.149 0 0 0-5.087-5.908zm30.309 2.659l-2.291-.494-.199-.046-.086 1.137a.614.614 0 0 1-.647.558.605.605 0 0 1-.558-.648l.101-1.348a22.73 22.73 0 0 1-1.156-.357l-.293 1.296a.613.613 0 0 1-.722.456.603.603 0 0 1-.456-.722l.328-1.451c-.41-.164-.813-.339-1.211-.525l-.395 1.16a.614.614 0 0 1-.766.377.604.604 0 0 1-.378-.766l.448-1.316a23.29 23.29 0 0 1-.986-.557l-.588 1.044a.613.613 0 0 1-.823.23.604.604 0 0 1-.23-.822l.62-1.102c-.328-.221-.65-.451-.967-.689l-.712.856a.616.616 0 0 1-.851.078.605.605 0 0 1-.078-.851l.695-.835a22.047 22.047 0 0 1-.961-.851l-.863.893a.613.613 0 0 1-.854.015.605.605 0 0 1-.015-.855l.874-.903a23.137 23.137 0 0 1-.972-1.077l-1.19.799a.617.617 0 0 1-.839-.165.605.605 0 0 1 .165-.839l1.106-.742a23.186 23.186 0 0 1-.58-.797l-.24-.346-1.522.599a.615.615 0 0 1-.783-.341.605.605 0 0 1 .341-.784l1.256-.493-.417-.6a1.538 1.538 0 0 0-1.261-.66h-2.313c4.475 7.923 12.332 13.544 21.269 15.244v-2.76zm5.928 1.28l-4.72-1.019v2.988h6.723a2.648 2.648 0 0 0-2.003-1.969zM8.215 5.627c.246-.499.98-.499 1.226 0l.647 1.312 1.445.21a.68.68 0 0 1 .552.465.68.68 0 0 1-.173.701l-1.046 1.021.247 1.442a.68.68 0 0 1-.272.668.68.68 0 0 1-.72.052l-1.293-.68-1.293.68c-.491.259-1.086-.173-.992-.721l.247-1.441-1.046-1.021a.68.68 0 0 1-.173-.701.68.68 0 0 1 .552-.465l1.445-.21.647-1.312zm-.384 3.037a.681.681 0 0 1 .197.604l-.114.666.596-.314a.69.69 0 0 1 .637 0l.595.314-.114-.666a.684.684 0 0 1 .197-.605l.483-.471-.668-.098a.681.681 0 0 1-.514-.374l-.298-.604-.298.604a.681.681 0 0 1-.514.374l-.668.098.483.472z"/></symbol><symbol viewBox="0 0 39.987 42.671" id="calendar" xmlns="http://www.w3.org/2000/svg"><path fill-rule="evenodd" d="M29.464 32H.536A.533.533 0 0 1 0 31.467v-28.8c0-.295.239-.534.536-.534h3.75v-1.6c0-.295.239-.533.535-.533h3.75c.297 0 .536.238.536.533v1.6h11.786v-1.6c0-.295.239-.533.536-.533h3.75c.296 0 .535.238.535.533v1.6h3.75c.297 0 .536.239.536.534v28.8a.533.533 0 0 1-.536.533zM8.036 2.667v-1.6H5.357v3.2h2.679v-1.6zm16.607 0v-1.6h-2.679v3.2h2.679v-1.6zm4.286.533h-3.215v1.6a.533.533 0 0 1-.535.533h-3.75a.533.533 0 0 1-.536-.533V3.2H9.107v1.6a.533.533 0 0 1-.536.533h-3.75a.533.533 0 0 1-.535-.533V3.2H1.071V8h27.858V3.2zm0 5.867H1.071v21.866h27.858V9.067zm-18.215 3.2h14.465v15.466H4.821V12.267h5.893zm9.643 14.4h3.75v-3.734h-3.75v3.734zm0-4.8h3.75v-3.734h-3.75v3.734zm0-4.8h3.75v-3.734h-3.75v3.734zm-4.821 9.6h3.75v-3.734h-3.75v3.734zm0-4.8h3.75v-3.734h-3.75v3.734zm0-4.8h3.75v-3.734h-3.75v3.734zm-4.822 9.6h3.75v-3.734h-3.75v3.734zm0-4.8h3.75v-3.734h-3.75v3.734zm0-4.8h3.75v-3.734h-3.75v3.734zm-4.821 9.6h3.75v-3.734h-3.75v3.734zm0-4.8h3.75v-3.734h-3.75v3.734zm0-4.8h3.75v-3.734h-3.75v3.734z"/></symbol><symbol viewBox="0 0 19.994 24" id="marker" xmlns="http://www.w3.org/2000/svg"><path fill-rule="evenodd" d="M13.897 8.57a7.169 7.169 0 0 1-.516 1.664c-.753 1.83-2.415 4.641-6.048 7.653a.488.488 0 0 1-.622 0c-3.637-3.012-5.295-5.823-6.049-7.653A7.252 7.252 0 0 1 .146 8.57a7.33 7.33 0 0 1-.124-1.355C.022 3.238 3.161 0 7.018 0c3.857 0 6.996 3.238 7.004 7.215 0 .453-.044.91-.125 1.355zM7.018 1.015c-3.311 0-6.008 2.781-6.008 6.196 0 .397.036.789.11 1.178 0 .011.003.019.003.026.004.019.011.076.033.162v.008c.095.423.231.838.406 1.23.004.004.004.011.008.015.684 1.672 2.184 4.223 5.448 7.004 3.264-2.781 4.764-5.332 5.449-7.004.003-.004.003-.011.007-.015.179-.396.315-.807.406-1.23v-.008l.033-.162c0-.007.004-.015.004-.023.073-.384.109-.781.109-1.181 0-3.415-2.696-6.196-6.008-6.196zm0 10.86c-2.448 0-4.442-2.056-4.442-4.581 0-2.524 1.994-4.581 4.442-4.581 2.448 0 4.442 2.057 4.442 4.581 0 2.525-1.994 4.581-4.442 4.581zm0-8.143c-1.903 0-3.454 1.6-3.454 3.562 0 1.963 1.548 3.563 3.454 3.563 1.907 0 3.454-1.6 3.454-3.563 0-1.962-1.551-3.562-3.454-3.562z"/></symbol><symbol viewBox="0 0 15.987 15.987" id="phone" xmlns="http://www.w3.org/2000/svg"><path fill-rule="evenodd" d="M11.093 5.79a5.894 5.894 0 0 0-1.651-3.185A5.902 5.902 0 0 0 6.074.927L6.204 0a6.796 6.796 0 0 1 3.897 1.943 6.842 6.842 0 0 1 1.914 3.69l-.922.157zM8.43 3.569a4.116 4.116 0 0 1 1.151 2.224l-.921.157a3.185 3.185 0 0 0-.89-1.719 3.177 3.177 0 0 0-1.819-.906l.13-.927c.895.125 1.707.53 2.349 1.171zM3.928 6.547c.639.784 1.361 1.481 2.223 2.023.185.115.39.2.582.305.098.055.165.038.245-.045.292-.3.59-.594.887-.889.39-.387.879-.387 1.272 0 .477.474.954.949 1.429 1.426.397.4.395.89-.005 1.294-.27.272-.557.532-.812.817-.372.417-.837.552-1.372.522-.777-.042-1.491-.3-2.181-.634a11.891 11.891 0 0 1-3.937-3.08C1.447 7.321.777 6.27.337 5.086.122 4.514-.03 3.927.017 3.305c.03-.382.173-.71.455-.977.305-.29.592-.592.892-.887.39-.384.88-.384 1.272-.002.242.237.479.48.719.719.233.235.465.465.697.7.41.412.41.891.003 1.301-.292.295-.582.59-.88.877-.077.077-.084.14-.045.235.198.469.48.886.798 1.276z"/></symbol><symbol viewBox="0 0 41.348 39.987" id="phone_2" xmlns="http://www.w3.org/2000/svg"><path fill-rule="evenodd" d="M30.099 14.525a.9.9 0 0 1-.9-.9c0-3.159-1.231-6.128-3.466-8.362A11.762 11.762 0 0 0 17.364 1.8a.9.9 0 1 1 0-1.8c3.642 0 7.066 1.417 9.642 3.991A13.527 13.527 0 0 1 31 13.625a.9.9 0 0 1-.901.9zM17.364 9.128h.001a4.41 4.41 0 0 1 3.181 1.317 4.404 4.404 0 0 1 1.318 3.179.9.9 0 0 1-1.801 0 2.64 2.64 0 0 0-.79-1.907 2.614 2.614 0 0 0-1.908-.79.899.899 0 1 1-.001-1.799zm0-4.564a9.01 9.01 0 0 1 6.412 2.654 8.997 8.997 0 0 1 2.656 6.407.9.9 0 1 1-1.801-.001 7.213 7.213 0 0 0-2.128-5.134 7.221 7.221 0 0 0-5.139-2.126.9.9 0 0 1 0-1.8zm-5.5 6.527a1.798 1.798 0 0 1-1.774.456l-.577.577h-.001c-.41.41.22 2.961 3.306 6.043 3.086 3.084 5.638 3.713 6.048 3.303l.001-.001.577-.576a1.798 1.798 0 0 1 .456-1.772l1.53-1.529a1.805 1.805 0 0 1 2.547 0l5.883 5.878a1.801 1.801 0 0 1 0 2.545l-1.53 1.529a1.79 1.79 0 0 1-1.774.456l-.321.321C25.12 29.435 23.565 30 21.699 30c-1.138 0-2.391-.21-3.73-.634-3.334-1.056-6.866-3.332-9.945-6.408-3.08-3.077-5.357-6.606-6.414-9.937-1.079-3.403-.773-6.249.854-8.056.024-.032.514-.525.514-.525a1.798 1.798 0 0 1 .456-1.772l1.53-1.529c.34-.34.792-.527 1.273-.527.481 0 .933.187 1.273.527l5.883 5.879a1.798 1.798 0 0 1 0 2.544l-1.529 1.529zm15.192 15.181l1.53-1.529-5.883-5.878-1.53 1.528 5.883 5.879zM3.93 6.033c-1.296 1.295-1.51 3.583-.603 6.444.971 3.061 3.091 6.332 5.97 9.208 2.879 2.877 6.152 4.995 9.216 5.965 2.863.907 5.153.693 6.448-.601l.001-.001.162-.162-4.565-4.562-.419.418c-.437.437-1.011.632-1.673.632-1.968 0-4.71-1.723-6.923-3.934-2.956-2.954-5.041-6.852-3.306-8.588l.001-.001.419-.418-4.566-4.562-.162.162zm2.307-3.621L4.707 3.94l2.942 2.939 2.919 2.918.022.022h.001L12.12 8.29 6.237 2.412z"/></symbol></svg>