<svg version="1.1" id="Layer_1" xmlns="http://www.w3.org/2000/svg" xmlns:xlink="http://www.w3.org/1999/xlink" x="0px" y="0px" viewBox="0 0 380.7 85" enable-background="new 0 0 380.7 85" xml:space="preserve" class="header-logo-img">
<g>
    <g>
        <path fill-rule="evenodd" clip-rule="evenodd" fill="#663334" d="M33,34.5c-3.3,0-6.3,2.6-7.1,5.7c-2.8-2.5-6.4-5.5-9.9-8.6
            c-3.7-3.2-7.2-6.5-9.6-9l5.6-6.5c2.8,2,7,5.7,11.4,9.6C26.7,28.8,30.2,32,33,34.5L33,34.5z"></path>
        <path fill-rule="evenodd" clip-rule="evenodd" fill="#663334" d="M5.4,21.2l-0.3-0.6c-0.4-0.9-1-2.2-1.6-3.5L1.6,13l4.5,1.2
            c1.4,0.4,2.8,0.8,3.8,1l0.5,0.1L5.4,21.2L5.4,21.2z"></path>
        <path fill-rule="evenodd" clip-rule="evenodd" fill="#663334" d="M38.6,58.8c-0.1-0.1-0.3-0.2-0.4,0.1c-1,1.9-2.3,2.3-5.4,2.3
            c-2.8,0-5.6-2.6-5.6-5.5V41.5c0-2.8,3-5.8,5.8-5.8c1.2,0,2.3,0.1,3.2,0.8c0.6,0.2,1.6,0.9,1.6,0.9l0.2,0.1l0-3l-0.5-0.3l-1-0.9
            c-1.1-1.1-2-2.2-2.7-4.6l0-0.1l-0.9,0.7L21.8,18.3l11.7-8.2l-3.7-8.6c2,2.2,3.9,4.5,6,7.3c2,4,3.7,7.8,5.3,11.2l5.6-0.1l0.3,0.3
            l-3.4,2.5c0.6,1,1.2,1.2,1.9,1.2c0.6,0,1.3-0.1,2.1-0.1c0.1,0,0.2,0,0.2,0c0.1,0.1,0.1,0.2,0.1,0.2c0,0.1,0,0.1,0.1,0.1L47.3,27
            l0.1,0.2l0.1,0.2l0.2,0.4l0.3,0.5c0.1,0.2,0.2,0.3,0.4,0.4l0.2,0.2c0.1,0.1,0.1,0.1,0.2,0.2c0.1,0.1,0.2,0.2,0.3,0.3
            c0.1,0.1,0.2,0.2,0.3,0.3c0.2,0.2,0.3,0.5,0.3,0.8c0,0.9-1.1,1.9-2.2,2.9c-0.6,0.5-1.1,0.9-1.5,1.2c-0.2,0.2-0.4,0.3-0.5,0.4
            c-0.1,0-0.1,0.1-0.2,0.1c-0.1,0.1-0.1,0.1-0.1,0.1l0.3,0.3c0.1,0,0.2,0.1,0.2,0.1c0.1,0.1,0.2,0.1,0.3,0.2
            c0.1,0.1,0.2,0.1,0.3,0.2c0.1,0,0.2,0.1,0.3,0.1c6.1,3.3,9.9,9.6,9.9,16.5c0,4.2-3.8,8.8-7.7,13.5c-1.9,2.3-3.8,4.6-5.3,6.8
            c-1.4,2.2-2.4,4.3-2.4,6.3l0.4,0.4c0.8,0.1,5.2,0.9,7.1,1.8c0.2,0.6,0.3,0.7,0.3,1.2l-10.5,0.1c-0.3,0-1,0-1.6,0
            c-0.6,0-1.2-0.1-1.5-0.2c0.7-4.3,1.6-7.8,2.4-11.4C38.4,67.2,39,63.5,39,59v-0.2l-0.1,0.1C38.7,59,38.7,58.9,38.6,58.8L38.6,58.8z
            "></path>
    </g>
    <g>
        <path fill="#663334" d="M128.9,43.9l-1.2,1.8c-1.7,0-2.9,0-3.7-0.1l-3.9,9.9c0,0.2,0,0.4,0,0.6c0,0.2,0,0.3-0.1,0.5
            c0,1,0.6,1.6,1.9,1.6c0.8,0,1.9-0.3,3.2-0.9c1.3-0.6,2.6-1.3,3.9-2.1v1c-3,2.2-6.3,3.3-9.8,3.3c-1.8,0-3.2-0.4-4.3-1.1
            s-1.6-1.7-1.6-3c0-0.8,0.2-1.9,0.7-3.1l2.5-6.8c-1.8-0.1-3.1-0.2-4-0.2c-2.4,4.7-5.2,8.2-8.2,10.5c-3.1,2.3-6.6,3.5-10.5,3.5
            c-2.6,0-4.7-0.6-6.4-1.7C85.8,56.5,85,55,85,53.2c0-1.7,0.6-3.2,1.8-4.5c1.2-1.4,2.8-2.4,4.9-3.2c2.8-1,6.4-1.6,10.8-1.6
            c1.5,0,3.1,0,4.8,0.1c1.7,0.1,3.1,0.1,4.2,0.1c1.5-3.2,2.7-5.8,3.6-7.5c0.9-1.8,2.2-3.5,3.9-5.3c1.7-1.7,3.4-2.6,5.3-2.6
            c0.8,0,1.4,0.1,2.1,0.4c0.6,0.3,1.1,0.7,1.5,1.2c0.4,0.5,0.5,1,0.5,1.7c0,1.2-0.3,2.8-1,4.5l-2.9,7.7
            C126.3,44.1,127.8,44,128.9,43.9z M110.9,45.4c-2.3-0.4-5.1-0.6-8.2-0.6c-1.9,0-3.8,0.3-5.5,0.9c-1.8,0.6-3.2,1.6-4.4,2.8
            c-1.1,1.3-1.7,2.9-1.7,4.8c0,1.4,0.5,2.6,1.5,3.5c1,0.9,2.2,1.3,3.7,1.3c1.7,0,3.6-0.5,5.4-1.6c1.9-1.1,3.6-2.6,5.2-4.5
            C108.4,50.1,109.8,47.9,110.9,45.4z M117.1,44.2l5.1-13.6c0.1-0.4,0.2-0.6,0.2-0.7c0-0.1-0.1-0.2-0.2-0.2l-0.2,0.1
            c-1.9,1.6-3.4,3.3-4.4,5.1c-1,1.8-2.4,4.9-4.4,9.3l2.3,0.1L117.1,44.2z"></path>
        <path fill="#663334" d="M156.5,41.8l-6.7,18.7c1.1-0.1,2.2-0.5,3.3-1c1.2-0.6,2.1-1.3,2.9-2.1l0.6,1.6c-1.2,0.9-2.3,1.6-3.4,2.1
            c-1.1,0.5-2.4,0.8-3.9,0.8c-2.6,7.2-7.3,10.8-14.2,10.8c-2.8,0-5.1-0.5-6.7-1.5c-1.6-1-2.4-2.5-2.4-4.3c0-1.6,0.5-2.9,1.6-3.9
            c1.1-1,2.4-1.7,3.9-2c1.5-0.4,3.1-0.6,4.7-0.6c2.6,0,4.8,0.2,6.7,0.7l1.3-3.3c-1.3,0.7-2.9,1-4.8,1c-3.9,0-5.9-1.4-5.9-4.2
            c0-2,0.6-4,1.7-6.2c1.1-2.1,2.6-3.9,4.5-5.2c1.9-1.4,3.9-2,6-2c1.7,0,3.2,0.6,4.4,1.7L156.5,41.8z M141.9,62.1
            c-0.5-0.6-1.5-0.9-3-0.9c-2.2,0-4.1,0.6-5.6,1.8c-1.5,1.2-2.3,2.7-2.3,4.5c0,1.2,0.4,2.3,1.3,3.1c0.9,0.8,2,1.2,3.3,1.2
            c1.9,0,3.5-0.7,4.7-2.1c1.3-1.4,2.1-3.2,2.4-5.5C142.6,63.2,142.3,62.5,141.9,62.1z M149.2,43.4c-0.5-0.9-1.3-1.3-2.3-1.3
            s-2,0.6-2.8,1.9c-0.8,1.3-1.9,3.6-3,6.9c-0.9,2.7-1.3,4.4-1.3,5.2c0,0.5,0.2,0.9,0.5,1.3c0.4,0.4,0.8,0.6,1.3,0.6
            c0.8,0,1.9-0.6,3-1.7L149.2,43.4z"></path>
        <path fill="#663334" d="M168.9,43.7c-0.3,0.6-1.2,1.1-2.5,1.7c-1.4,0.6-2.4,0.8-3.1,0.7c-1.3,0-2.4,0.3-3.2,1
            c-0.8,0.7-1.4,1.8-1.9,3.3l-1-0.2c0.6-1.8,1.5-3.4,2.8-4.9c1.3-1.4,2.9-2.5,4.7-3.2c1.8-0.7,3.7-1.1,5.7-1.1c2.9,0,4.9,0.1,6,0.3
            L171.5,55c-0.3,0.7-0.4,1.3-0.4,1.8c0.1,0.5,0.3,0.9,0.7,1.2c0.4,0.3,0.8,0.5,1.3,0.5c1.3,0,2.3-0.5,3.2-1.4c0.8-0.9,1.5-2,2-3.2
            c-1.9-1.2-3-2.5-3.3-4c-0.1-1,0.1-1.7,0.6-2.2c0.5-0.5,1.3-0.8,2.3-0.8c1.2,0,2.3,0.3,3.2,0.9c0.9,0.6,1.3,1.5,1.5,2.5
            c0.3,1.5,0,2.9-0.8,4.1c1.1,0.3,2,0.4,2.9,0.4c1,0,2-0.1,3.2-0.4l0.3,0.4c-1,0.3-2.1,0.4-3.2,0.4c-1,0-2.2-0.1-3.3-0.3
            c-2.1,3-5.8,4.5-11,4.5c-1.8,0-3-0.2-3.7-0.5c-0.7-0.3-1.2-1-1.6-2c-0.1-0.3-0.1-0.8-0.1-1.5c0-0.6,0-1.1,0.1-1.3L168.9,43.7z
             M178.5,53.1c0.1-1.3,0.1-2.4,0-3.3c-0.4-1.7-1-2.5-1.8-2.5c-0.8,0-1.1,0.6-0.8,1.7C176.1,50.7,177,52.1,178.5,53.1z"></path>
        <path fill="#663334" d="M201.2,54.2c0-1.7,0.3-3.1,0.8-4.3c-1.5-0.4-2.4-0.4-3,0.2c-0.5,0.5-1,1.6-1.5,3.2c-0.5,1.6-1.1,3-1.8,4.1
            c-0.3,0.6-0.7,1.1-1.1,1.4c-0.4,0.3-1,0.5-1.8,0.5c-2.6,0-4-1-4-3.1c0-0.8,0.2-1.6,0.5-2.4l4-10.7l7.1-1.3l-6,15.7v0.4V58
            c0.1,0,0.2-0.1,0.3-0.2c0.1-0.1,0.2-0.2,0.2-0.2c0.6-1.1,1.2-2.6,1.7-4.6c0.5-1.9,1.2-3.2,1.9-3.8c0.7-0.6,2.1-0.7,4.1-0.3
            c1.4-2.8,3.3-4.9,6-6.3c1.4-0.8,2.7-1.3,3.8-1.3c0.3,0,0.4,0.1,0.4,0.3c0-0.1-0.5,0.9-1.5,2.7c-1,1.9-1.9,3.9-2.7,5.9
            c-0.8,2.1-1.2,4-1.2,5.6c0,0.7,0.2,1.3,0.5,1.7c0.3,0.4,0.8,0.6,1.3,0.6c2.3,0,4.3-2.4,6-7.1c-1.7-2-2.5-4.1-2.5-6.4
            c0-1.5,0.3-2.7,1-3.5c0.6-0.9,1.5-1.3,2.6-1.3c1.2,0,2.2,0.5,2.9,1.5c0.7,1,1.1,2.3,1.1,4c0,2.3-0.6,4.5-1.7,6.4
            c0.7,0.3,1.6,0.5,2.8,0.5c1.3,0,2.5-0.2,3.3-0.7l0.2,0.7c-1.2,0.4-2.3,0.7-3.3,0.7c-1.1,0-2.2-0.2-3.3-0.5c-1.3,2.3-2.8,4-4.4,5.1
            c-1.6,1.1-3.6,1.6-5.9,1.6C203.5,59.2,201.2,57.5,201.2,54.2z M215.6,50.1c0.4-2.1,0.6-3.8,0.6-5c0-2.7-0.4-4.1-1.2-4.1
            c-0.4,0-0.7,0.3-0.9,0.8c-0.2,0.5-0.3,1.2-0.3,2c0,0.9,0.2,2,0.5,3.3C214.6,48.3,215.1,49.3,215.6,50.1z"></path>
        <path fill="#663334" d="M236.7,41.5l-5.9,16.1c-0.1,0.1-0.1,0.3-0.1,0.5v0.2c0.1,0,0.2-0.1,0.4-0.3c0.8-1.8,1.6-3.6,2.4-5.2
            c0.8-1.7,1.7-3.4,2.8-5.2c1.1-1.8,2.3-3.3,3.7-4.4c1.4-1.2,2.8-1.7,4.4-1.7c1.1,0,1.9,0.2,2.5,0.7c0.6,0.5,0.9,1.2,0.9,2.1
            c0,0.7-0.1,1.3-0.4,2L243,57.6c0,0-0.1,0.1-0.1,0.2c0,0.1-0.1,0.2-0.1,0.2c0,0.1,0.1,0.2,0.2,0.2c0.1,0,0.2,0,0.3-0.1
            s0.1-0.2,0.1-0.3l2.3-4.8c3.6-7.8,7.4-11.7,11.4-11.7c1,0,1.8,0.3,2.4,0.8c0.6,0.5,0.9,1.2,0.9,2c0,0.5-0.1,0.9-0.3,1.4l-3.7,9.5
            c-0.1,0.3-0.2,0.6-0.2,1.1c0,1,0.5,1.6,1.6,1.6c1.5,0,3.5-0.8,6.1-2.5l0.4,0.5c-3,2.2-6,3.3-9,3.3c-1.6,0-2.9-0.3-3.9-1
            c-1-0.7-1.5-1.6-1.5-2.6c0-0.8,0.2-1.6,0.5-2.6l4-9.8l0.1-0.2c0-0.1-0.1-0.2-0.2-0.2l-0.3,0.2c-0.1,0.1-0.5,0.3-1,0.7
            c-1.2,1.1-2.2,2.3-3.1,3.7c-0.9,1.4-1.8,3-2.8,4.8s-1.8,3.5-2.6,4.9c-0.5,1-1,1.6-1.3,1.9c-0.4,0.3-1,0.4-1.8,0.4
            c-1.2,0-2.1-0.3-2.8-1c-0.7-0.7-1.1-1.6-1.1-2.6c0-0.9,0.2-1.7,0.6-2.5l3.9-9.9c0-0.1,0.1-0.1,0.1-0.2s0-0.1,0-0.2l-0.1-0.2
            c-0.2,0-0.4,0.1-0.6,0.4c-1.9,1.8-3.5,3.8-5,6.2c-1.5,2.4-2.9,5-4.3,7.9c-0.3,0.7-0.6,1.2-1,1.5s-0.9,0.5-1.6,0.5
            c-2.8,0-4.3-1.1-4.3-3.3c0-0.8,0.2-1.7,0.6-2.7l3.7-10.2L236.7,41.5z"></path>
        <path fill="#663334" d="M287.9,41.6L283,54.5c-0.3,0.7-0.5,1.2-0.5,1.6c0,0.5,0.2,0.8,0.5,1.1c0.4,0.3,0.8,0.4,1.2,0.4
            c0.8,0,1.8-0.2,3-0.7c1.2-0.5,2.2-1,3-1.6l0.3,0.5c-1.2,1-2.7,1.8-4.3,2.4c-1.6,0.6-3.2,0.9-4.5,0.9c-2.3,0-3.9-0.7-5-2.1
            c-2,1.4-4.1,2.1-6.3,2.1c-1.7,0-3-0.4-4.1-1.1c-1.1-0.8-1.6-1.9-1.6-3.4c0-1.3,0.4-2.9,1.2-4.6c0.8-1.7,1.7-3.3,2.9-4.7
            c2.2-2.6,5-3.9,8.4-3.9c0.9,0,1.7,0.1,2.3,0.3c0.6,0.2,1.1,0.5,1.5,1.1L287.9,41.6z M280.5,43.5c-0.7-0.8-1.5-1.2-2.4-1.2
            c-0.8,0-1.5,0.3-2,1c-0.6,0.7-1.2,2-2,3.9c-1.8,3.8-2.7,6.6-2.7,8.3c0,1.5,0.6,2.2,1.9,2.2c0.3,0,0.7-0.1,1-0.2
            c0.3-0.1,0.7-0.3,1-0.5c0.3-0.2,0.7-0.4,1.2-0.7l-0.2-0.8c0-0.5,0.2-1.3,0.5-2.4L280.5,43.5z"></path>
        <path fill="#663334" d="M304.5,52.8l1.1-2.9c-1.7-0.4-2.9-0.3-3.5,0.2c-0.7,0.5-1.3,1.7-2,3.3c-0.7,1.7-1.3,3-1.8,3.9
            c-0.3,0.6-0.7,1.1-1.1,1.4c-0.4,0.3-1,0.5-1.8,0.5c-2.6,0-4-1-4-3.1c0-0.8,0.2-1.6,0.5-2.4l4-10.7l7.1-1.3l-6,15.7v0.4V58
            c0.1,0,0.2-0.1,0.3-0.2c0.1-0.1,0.2-0.2,0.2-0.2c0.5-0.9,1.1-2.4,1.7-4.4c0.7-2,1.4-3.3,2.3-4c0.9-0.6,2.3-0.7,4.4-0.2l2.4-6
            l7.1-1.3l-4.9,12.5c-0.3,1-0.5,1.6-0.5,1.9c0,1,0.6,1.6,1.9,1.6c0.6,0,1.2-0.1,1.9-0.4c0.6-0.2,1.3-0.6,2-1c0.7-0.4,1.3-0.8,2-1.2
            l0.3,0.5c-2.9,2.2-5.8,3.3-8.8,3.3c-1.7,0-3-0.4-4-1.1c-1-0.7-1.4-1.7-1.4-2.9C303.8,54.4,304,53.6,304.5,52.8z"></path>
        <path fill="#663334" d="M330.3,41.5l-5.9,16.1c-0.1,0.1-0.1,0.3-0.1,0.5v0.2c0.1,0,0.2-0.1,0.4-0.3c0.8-1.8,1.6-3.6,2.4-5.2
            c0.8-1.7,1.7-3.4,2.8-5.2c1.1-1.8,2.3-3.3,3.7-4.4c1.4-1.2,2.8-1.7,4.4-1.7c1.1,0,1.9,0.2,2.5,0.7c0.6,0.5,0.9,1.2,0.9,2.1
            c0,0.7-0.1,1.3-0.4,2l-4.5,11.4c0,0-0.1,0.1-0.1,0.2c0,0.1-0.1,0.2-0.1,0.2c0,0.1,0.1,0.2,0.2,0.2c0.1,0,0.2,0,0.3-0.1
            s0.1-0.2,0.1-0.3l2.3-4.8c3.6-7.8,7.4-11.7,11.4-11.7c1,0,1.8,0.3,2.4,0.8c0.6,0.5,0.9,1.2,0.9,2c0,0.5-0.1,0.9-0.3,1.4L350,55
            c-0.1,0.3-0.2,0.6-0.2,1.1c0,1,0.5,1.6,1.6,1.6c1.5,0,3.5-0.8,6.1-2.5l0.4,0.5c-3,2.2-6,3.3-9,3.3c-1.6,0-2.9-0.3-3.9-1
            c-1-0.7-1.5-1.6-1.5-2.6c0-0.8,0.2-1.6,0.5-2.6l4-9.8l0.1-0.2c0-0.1-0.1-0.2-0.2-0.2l-0.3,0.2c-0.1,0.1-0.5,0.3-1,0.7
            c-1.2,1.1-2.2,2.3-3.1,3.7c-0.9,1.4-1.8,3-2.8,4.8s-1.8,3.5-2.6,4.9c-0.5,1-1,1.6-1.3,1.9c-0.4,0.3-1,0.4-1.8,0.4
            c-1.2,0-2.1-0.3-2.8-1c-0.7-0.7-1.1-1.6-1.1-2.6c0-0.9,0.2-1.7,0.6-2.5l3.9-9.9c0-0.1,0.1-0.1,0.1-0.2s0-0.1,0-0.2l-0.1-0.2
            c-0.2,0-0.4,0.1-0.6,0.4c-1.9,1.8-3.5,3.8-5,6.2c-1.5,2.4-2.9,5-4.3,7.9c-0.3,0.7-0.6,1.2-1,1.5s-0.9,0.5-1.6,0.5
            c-2.8,0-4.3-1.1-4.3-3.3c0-0.8,0.2-1.7,0.6-2.7L323,43L330.3,41.5z"></path>
        <path fill="#663334" d="M367.4,44.6c-1.4,0-2.8-0.3-4-1c-1.2-0.7-2.2-1.6-2.9-2.8c-0.7-1.2-1-2.5-1-4c0-1.3,0.3-2.5,0.8-3.7
            c0.5-1.2,1.2-2.3,2.2-3.2s2-1.7,3.2-2.2c1.2-0.5,2.5-0.8,3.8-0.8c1.5,0,2.8,0.3,4,1c1.2,0.7,2.2,1.6,2.8,2.9c0.7,1.2,1,2.5,1,4
            c0,1.3-0.3,2.5-0.8,3.8c-0.5,1.2-1.3,2.3-2.2,3.2c-0.9,0.9-2,1.7-3.2,2.2C369.9,44.4,368.7,44.6,367.4,44.6z M367.5,43.5
            c1.5,0,2.9-0.4,4.3-1.2c1.3-0.8,2.4-1.9,3.2-3.2c0.8-1.3,1.2-2.8,1.2-4.3c0-1.3-0.3-2.4-0.9-3.4c-0.6-1-1.4-1.9-2.5-2.5
            s-2.2-0.9-3.5-0.9c-1.5,0-2.9,0.4-4.2,1.2c-1.3,0.8-2.4,1.8-3.2,3.2c-0.8,1.3-1.2,2.7-1.2,4.2c0,1.9,0.7,3.6,2,4.9
            C364,42.8,365.6,43.5,367.5,43.5z M363.1,38.8l-0.5,0.3c-0.5-1-0.8-2-0.8-2.9c0-1.1,0.4-2.1,1.1-3c0.8-0.9,1.8-1.6,3.1-2.1
            c1.3-0.5,2.7-0.8,4.3-0.8c1.4,0,2.4,0.2,3.1,0.7c0.7,0.5,1.1,1.2,1.1,2.2c0,1.3-0.5,2.3-1.6,3c-1,0.7-2.3,1.2-3.7,1.5
            c0.5,0.1,0.8,0.2,1.2,0.4c0.3,0.2,0.7,0.5,1,0.8c0.3,0.3,0.6,0.5,0.8,0.6c0.2,0.1,0.5,0.2,0.8,0.2c0.3,0,0.5-0.1,0.7-0.2v0.5
            c-0.9,0.4-1.8,0.6-2.4,0.6c-0.8,0-1.5-0.2-2.1-0.6c-0.6-0.4-1.1-1-1.7-1.8c-0.2,0.6-0.4,1-0.5,1.3s-0.4,0.5-0.8,0.6
            c-0.6,0.3-1.2,0.4-2,0.5c0.3-0.6,0.6-1.6,0.8-2.8c0.3-1.2,0.6-2.2,0.8-2.9c0.3-0.7,0.7-1.4,1.3-1.9c0.8-0.8,1.7-1.4,2.7-1.8
            l0.3,0.2c-0.5,0.8-1,1.7-1.5,2.9c-0.4,1.2-0.8,2.3-1,3.3c1.2-0.3,2.3-0.9,3.1-1.8c0.9-0.9,1.3-1.8,1.3-2.8c0-1.4-0.7-2.1-2.2-2.1
            c-1.2,0-2.4,0.3-3.5,0.9c-1.1,0.6-2.1,1.4-2.8,2.3c-0.7,1-1.1,2-1.1,3C362.6,37.8,362.7,38.4,363.1,38.8z"></path>
    </g>
</g>
</svg>
