<svg width="88" height="69" viewBox="0 0 88 69" fill="none" xmlns="http://www.w3.org/2000/svg">
<path d="M45.2615 34.9274C47.3987 33.0774 49.1129 30.7893 50.2878 28.2184C51.4627 25.6475 52.0707 22.8539 52.0707 20.0272C52.0707 14.7157 49.9607 9.62166 46.2049 5.86583C42.449 2.11 37.3551 7.16617e-07 32.0435 7.16617e-07C26.732 7.16617e-07 21.638 2.11 17.8821 5.86583C14.1263 9.62166 12.0163 14.7157 12.0163 20.0272C12.0163 22.8539 12.6243 25.6475 13.7992 28.2184C14.9741 30.7893 16.6884 33.0774 18.8256 34.9274C13.2185 37.4664 8.46135 41.5666 5.12288 46.7376C1.7844 51.9087 0.00589542 57.9319 0 64.087C0 65.1493 0.422 66.1681 1.17317 66.9193C1.92433 67.6705 2.94313 68.0925 4.00544 68.0925C5.06775 68.0925 6.08655 67.6705 6.83771 66.9193C7.58888 66.1681 8.01088 65.1493 8.01088 64.087C8.01088 57.7132 10.5429 51.6004 15.0499 47.0934C19.5569 42.5864 25.6697 40.0544 32.0435 40.0544C38.4174 40.0544 44.5302 42.5864 49.0371 47.0934C53.5441 51.6004 56.0761 57.7132 56.0761 64.087C56.0761 65.1493 56.4981 66.1681 57.2493 66.9193C58.0005 67.6705 59.0193 68.0925 60.0816 68.0925C61.1439 68.0925 62.1627 67.6705 62.9139 66.9193C63.665 66.1681 64.087 65.1493 64.087 64.087C64.0811 57.9319 62.3026 51.9087 58.9641 46.7376C55.6257 41.5666 50.8685 37.4664 45.2615 34.9274ZM32.0435 32.0435C29.6669 32.0435 27.3437 31.3388 25.3676 30.0184C23.3915 28.698 21.8514 26.8213 20.9419 24.6256C20.0324 22.4299 19.7944 20.0139 20.2581 17.6829C20.7217 15.352 21.8662 13.2109 23.5467 11.5304C25.2272 9.84986 27.3683 8.70542 29.6992 8.24177C32.0302 7.77812 34.4463 8.01608 36.642 8.92557C38.8377 9.83505 40.7143 11.3752 42.0347 13.3513C43.3551 15.3274 44.0598 17.6506 44.0598 20.0272C44.0598 23.2141 42.7938 26.2705 40.5403 28.524C38.2868 30.7775 35.2304 32.0435 32.0435 32.0435ZM71.0565 33.3252C73.6198 30.4387 75.2943 26.8727 75.8782 23.0567C76.4622 19.2406 75.9308 15.3371 74.348 11.816C72.7652 8.29497 70.1985 5.30639 66.9568 3.21005C63.7151 1.11371 59.9366 -0.0010318 56.0761 7.16617e-07C55.0138 7.16617e-07 53.995 0.422001 53.2439 1.17317C52.4927 1.92433 52.0707 2.94313 52.0707 4.00544C52.0707 5.06775 52.4927 6.08655 53.2439 6.83771C53.995 7.58888 55.0138 8.01088 56.0761 8.01088C59.2631 8.01088 62.3195 9.27688 64.573 11.5304C66.8265 13.7839 68.0925 16.8403 68.0925 20.0272C68.0868 22.131 67.5289 24.1965 66.4745 26.017C65.4201 27.8376 63.9063 29.3494 62.0843 30.4013C61.4904 30.7438 60.9945 31.2331 60.6438 31.8222C60.2931 32.4113 60.0996 33.0805 60.0816 33.7659C60.0648 34.4458 60.2215 35.1189 60.5368 35.7215C60.8522 36.3242 61.3158 36.8366 61.884 37.2105L63.4462 38.2519L63.9669 38.5323C68.795 40.8223 72.8682 44.4443 75.7067 48.9718C78.5452 53.4992 80.0309 58.7435 79.9886 64.087C79.9886 65.1493 80.4106 66.1681 81.1618 66.9193C81.9129 67.6705 82.9317 68.0925 83.994 68.0925C85.0564 68.0925 86.0752 67.6705 86.8263 66.9193C87.5775 66.1681 87.9995 65.1493 87.9995 64.087C88.0322 57.9404 86.4927 51.8875 83.5273 46.5034C80.5618 41.1193 76.2689 36.5829 71.0565 33.3252Z" fill="#5A2BFC"/>
</svg>
